<?xml version="1.0" encoding="UTF-8"?>
<!DOCTYPE svg PUBLIC "-//W3C//DTD SVG 1.1//EN" "http://www.w3.org/Graphics/SVG/1.1/DTD/svg11.dtd">
<svg xmlns="http://www.w3.org/2000/svg" xmlns:xlink="http://www.w3.org/1999/xlink">
<symbol id="arrow-left" viewBox="0 0 24 25">
	<path d="M19 12.5H5M12 19.5l-7-7 7-7"/>
</symbol>
<symbol id="arrow-right" viewBox="0 0 24 25">
	<path d="M5 12.5h14M12 5.5l7 7-7 7"/>
</symbol>
<symbol id="fb" viewBox="0 0 8 14">
	<path fill="#818181" d="M5.165 13.662V7.528h2.112l.314-2.4H5.165v-1.53c0-.693.197-1.168 1.212-1.168h1.286V.29A17.405 17.405 0 0 0 5.78.193c-1.866 0-3.148 1.117-3.148 3.166v1.763H.534v2.401h2.102v6.138h2.53Z"/>
</symbol>
<symbol id="instagram" viewBox="0 0 13 13">
	<path fill="#818181" d="M6.629 3.88A3.044 3.044 0 0 0 3.58 6.927 3.044 3.044 0 0 0 6.63 9.976a3.044 3.044 0 0 0 3.048-3.048A3.044 3.044 0 0 0 6.63 3.879Zm0 5.03a1.986 1.986 0 0 1-1.982-1.982c0-1.091.89-1.981 1.982-1.981 1.09 0 1.98.89 1.98 1.98 0 1.092-.89 1.982-1.98 1.982Zm3.173-5.866a.711.711 0 1 0 0 1.424.71.71 0 0 0 .504-1.216.71.71 0 0 0-.504-.208Zm2.769 3.884c0-.82.007-1.634-.039-2.453-.046-.95-.263-1.795-.958-2.49-.697-.698-1.54-.913-2.491-.96C8.263.98 7.449.988 6.63.988c-.82 0-1.633-.008-2.452.039-.952.046-1.796.263-2.491.958-.698.697-.913 1.54-.96 2.491C.683 5.295.69 6.11.69 6.928S.682 8.56.728 9.38c.046.952.263 1.796.959 2.492.697.697 1.54.912 2.49.958.821.046 1.634.039 2.453.039.82 0 1.634.007 2.453-.039.95-.046 1.795-.263 2.49-.958.698-.697.913-1.54.96-2.492.047-.819.038-1.632.038-2.452Zm-1.308 3.505c-.108.27-.24.472-.449.68a1.9 1.9 0 0 1-.68.45c-.782.31-2.639.24-3.505.24-.867 0-2.725.07-3.507-.24a1.889 1.889 0 0 1-.68-.448c-.21-.21-.34-.41-.45-.68-.308-.784-.239-2.64-.239-3.507s-.07-2.725.24-3.506c.108-.271.239-.473.449-.681.21-.208.41-.34.68-.45.782-.308 2.64-.238 3.507-.238.866 0 2.724-.07 3.506.239.27.108.473.24.68.449.21.21.341.41.45.68.309.782.239 2.64.239 3.507 0 .866.07 2.723-.241 3.505Z"/>
</symbol>
<symbol id="linkedn" viewBox="0 0 15 15">
	<path fill="#818181" d="M1.901 3.869a1.733 1.733 0 1 0 0-3.467 1.733 1.733 0 0 0 0 3.467ZM5.272 5.182v9.616h2.985v-4.755c0-1.255.236-2.47 1.792-2.47 1.535 0 1.554 1.434 1.554 2.549v4.677h2.987V9.525c0-2.59-.557-4.581-3.585-4.581-1.454 0-2.428.798-2.827 1.553h-.04V5.182H5.272Zm-4.866 0h2.99v9.616H.406V5.182Z"/>
</symbol>
<symbol id="send" viewBox="0 0 24 24">
	<path stroke="#fff" stroke-linecap="round" stroke-linejoin="round" stroke-width="2" d="M22 2 11 13M22 2l-7 20-4-9-9-4 20-7Z"/>
</symbol>
<symbol id="twitter" viewBox="0 0 14 13">
	<path fill="#818181" d="M13.896 1.606a5.194 5.194 0 0 1-1.59.464A2.959 2.959 0 0 0 13.52.417c-.54.35-1.133.595-1.751.725-.258-.3-.57-.539-.918-.702A2.567 2.567 0 0 0 9.752.194c-1.53 0-2.76 1.347-2.76 3 0 .231.027.463.069.686C4.77 3.75 2.728 2.562 1.37.743a3.175 3.175 0 0 0-.376 1.513c0 1.04.487 1.958 1.23 2.498a2.62 2.62 0 0 1-1.248-.381v.037c0 1.457.948 2.664 2.212 2.942a2.705 2.705 0 0 1-.726.102c-.18 0-.35-.02-.521-.046.35 1.189 1.367 2.052 2.58 2.08-.949.807-2.137 1.281-3.427 1.281-.231 0-.445-.008-.667-.037a7.371 7.371 0 0 0 4.24 1.345c5.075 0 7.852-4.567 7.852-8.53 0-.13 0-.26-.008-.39a6.25 6.25 0 0 0 1.384-1.551Z"/>
</symbol>
</svg>