<svg width="375" height="477" viewBox="0 0 375 477" fill="none" xmlns="http://www.w3.org/2000/svg">
<mask id="mask0_179_967" style="mask-type:alpha" maskUnits="userSpaceOnUse" x="0" y="0" width="375" height="477">
<path d="M0 0H375V477H0V0Z" fill="url(#paint0_radial_179_967)"/>
</mask>
<g mask="url(#mask0_179_967)">
<path d="M0 0H375V477H0V0Z" fill="url(#paint1_radial_179_967)"/>
<g opacity="0.8">
<g style="mix-blend-mode:color-dodge" opacity="0.7">
<path d="M248.603 16L252.398 18.1339C253.607 18.8013 254.607 19.7911 255.287 20.9934C255.946 22.2295 256.277 23.6148 256.246 25.0158V26.883C256.246 28.4123 255.927 29.3832 255.287 29.7957C254.647 30.2119 253.688 30.0518 252.398 29.3156L251.183 28.6114V36.3362L248.603 34.8424V16ZM252.398 26.6696C252.824 26.915 253.144 26.9683 253.347 26.8189C253.549 26.6696 253.667 26.2748 253.667 25.6239V23.394C253.693 22.8561 253.583 22.3203 253.347 21.8363C253.131 21.4332 252.801 21.1029 252.398 20.8867L251.183 20.1825V25.9654L252.398 26.6696Z" fill="#7C1DC9"/>
</g>
<g style="mix-blend-mode:color-dodge" opacity="0.7">
<path d="M257.653 21.228L260.233 22.7218V30.3932L263.005 31.9936V24.3115L265.574 25.8053V44.6584L263.005 43.1646V34.7357L260.233 33.1353V41.6709L257.653 40.0705V21.228Z" fill="#7C1DC9"/>
</g>
<g style="mix-blend-mode:color-dodge" opacity="0.7">
<path d="M267.503 26.915L271.298 29.113C272.506 29.7774 273.506 30.7634 274.187 31.9617C274.846 33.2021 275.176 34.5905 275.147 35.9948V37.8513C275.147 39.3771 274.827 40.348 274.187 40.7748C273.548 41.2016 272.578 41.0309 271.298 40.284L270.083 39.5798V47.2619L267.503 45.7681V26.915ZM271.298 37.5846C271.725 37.83 272.034 37.8727 272.247 37.734C272.46 37.5953 272.567 37.1898 272.567 36.539V34.3197C272.593 33.7818 272.483 33.246 272.247 32.762C272.029 32.358 271.7 32.0248 271.298 31.8017L270.083 31.0975V36.8697L271.298 37.5846Z" fill="#7C1DC9"/>
</g>
<g style="mix-blend-mode:color-dodge" opacity="0.7">
<path d="M329.3 164.371C328.641 163.15 328.307 161.779 328.33 160.391V150.266C328.33 148.793 328.65 147.844 329.3 147.406C329.95 146.969 330.888 147.118 332.125 147.833C333.31 148.5 334.288 149.482 334.95 150.671C335.608 151.897 335.942 153.27 335.92 154.662V156.646L333.479 155.238V153.104C333.518 152.609 333.419 152.112 333.191 151.671C332.963 151.229 332.615 150.861 332.189 150.607C331.336 150.106 330.899 150.447 330.899 151.61V162.141C330.861 162.632 330.963 163.123 331.191 163.558C331.419 163.994 331.765 164.357 332.189 164.606C333.052 165.107 333.479 164.776 333.479 163.635V160.754L335.92 162.162V164.83C335.92 166.302 335.6 167.252 334.95 167.689C334.299 168.127 333.361 167.977 332.125 167.262C330.931 166.583 329.952 165.581 329.3 164.371Z" fill="#7C1DC9"/>
</g>
<g style="mix-blend-mode:color-dodge" opacity="0.7">
<path d="M338.031 169.407C337.374 168.154 337.044 166.756 337.071 165.342V164.275L339.512 165.683V166.974C339.469 167.49 339.571 168.007 339.806 168.467C340.042 168.927 340.402 169.312 340.845 169.578C341.282 169.834 341.612 169.876 341.847 169.706C342.081 169.535 342.177 169.13 342.177 168.468C342.177 167.659 342.018 166.858 341.708 166.11C341.231 164.993 340.653 163.921 339.981 162.909C339.1 161.563 338.354 160.134 337.753 158.641C337.337 157.584 337.121 156.459 337.114 155.323C337.114 153.84 337.444 152.869 338.105 152.432C338.766 151.994 339.715 152.144 340.962 152.869C342.15 153.525 343.124 154.51 343.766 155.707C344.413 156.963 344.739 158.36 344.714 159.772V160.637L342.273 159.228V158.257C342.294 157.705 342.18 157.156 341.943 156.657C341.731 156.233 341.397 155.884 340.983 155.654C340.131 155.163 339.693 155.515 339.693 156.721C339.709 157.478 339.872 158.224 340.173 158.919C340.669 160.031 341.253 161.102 341.921 162.12C342.807 163.463 343.553 164.893 344.149 166.387C344.553 167.491 344.759 168.658 344.757 169.834C344.757 171.377 344.427 172.37 343.766 172.811C343.105 173.259 342.135 173.109 340.866 172.384C339.654 171.686 338.67 170.652 338.031 169.407Z" fill="#7C1DC9"/>
</g>
<g style="mix-blend-mode:color-dodge" opacity="0.7">
<path d="M346.783 174.507C346.13 173.249 345.8 171.848 345.823 170.431V169.364L348.264 170.773V172.064C348.221 172.579 348.323 173.096 348.558 173.556C348.794 174.017 349.154 174.401 349.597 174.667C350.034 174.923 350.375 174.966 350.599 174.806C350.823 174.646 350.94 174.219 350.94 173.557C350.934 172.749 350.775 171.949 350.471 171.199C349.98 170.087 349.399 169.016 348.733 167.999C347.862 166.67 347.116 165.262 346.505 163.795C346.094 162.737 345.88 161.612 345.876 160.477C345.876 158.983 346.196 158.023 346.857 157.585C347.518 157.148 348.467 157.286 349.714 158.012C350.901 158.674 351.874 159.663 352.518 160.861C353.172 162.11 353.498 163.505 353.466 164.915V165.705L351.047 164.254V163.293C351.066 162.739 350.957 162.187 350.727 161.682C350.508 161.266 350.175 160.922 349.767 160.69C348.904 160.188 348.478 160.541 348.478 161.757C348.493 162.51 348.656 163.253 348.957 163.944C349.448 165.057 350.029 166.127 350.695 167.145C351.583 168.468 352.33 169.88 352.923 171.359C353.334 172.465 353.544 173.636 353.541 174.816C353.541 176.353 353.2 177.345 352.539 177.793C351.878 178.241 350.908 178.092 349.65 177.356C348.444 176.697 347.45 175.709 346.783 174.507Z" fill="#7C1DC9"/>
</g>
<g style="mix-blend-mode:color-dodge" opacity="0.5">
<path d="M305.656 236.71C304.999 235.458 304.669 234.06 304.696 232.645V231.578L307.127 232.987V234.256C307.083 234.773 307.186 235.291 307.424 235.752C307.661 236.212 308.024 236.596 308.47 236.86C308.907 237.116 309.238 237.159 309.461 236.998C309.685 236.838 309.803 236.412 309.803 235.75C309.796 234.942 309.637 234.141 309.333 233.392C308.847 232.277 308.266 231.206 307.596 230.191C306.723 228.841 305.977 227.412 305.368 225.923C304.961 224.868 304.748 223.747 304.739 222.616C304.739 221.122 305.069 220.162 305.72 219.724C306.37 219.287 307.329 219.426 308.587 220.151C309.767 220.819 310.738 221.801 311.391 222.989C312.038 224.245 312.364 225.642 312.34 227.054V227.833L309.898 226.425V225.454C309.919 224.902 309.806 224.353 309.568 223.854C309.347 223.437 309.015 223.09 308.609 222.851C307.745 222.36 307.319 222.712 307.319 223.918C307.334 224.671 307.497 225.414 307.798 226.105C308.292 227.218 308.876 228.289 309.547 229.306C310.432 230.649 311.178 232.079 311.775 233.574C312.178 234.681 312.384 235.851 312.382 237.031C312.382 238.567 312.052 239.559 311.391 240.007C310.719 240.445 309.76 240.306 308.491 239.57C307.296 238.903 306.313 237.912 305.656 236.71Z" fill="#7C1DC9"/>
</g>
<g style="mix-blend-mode:color-dodge" opacity="0.5">
<path d="M319.301 245.502C318.692 245.391 318.11 245.167 317.584 244.841C316.369 244.15 315.366 243.139 314.685 241.917C313.997 240.667 313.647 239.258 313.672 237.831V227.929C313.672 226.414 314.003 225.443 314.685 225.006C315.367 224.568 316.326 224.718 317.584 225.443C318.806 226.13 319.813 227.142 320.495 228.367C321.196 229.614 321.564 231.022 321.561 232.453V242.365C321.652 243.315 321.39 244.265 320.825 245.033C320.902 245.241 321.021 245.43 321.177 245.587C321.365 245.757 321.572 245.904 321.795 246.025L322.19 246.26V248.948L321.507 248.554C320.931 248.248 320.432 247.814 320.049 247.285C319.667 246.756 319.411 246.146 319.301 245.502ZM318.928 241.064V230.767C318.973 230.248 318.871 229.726 318.633 229.262C318.396 228.797 318.032 228.41 317.584 228.143C316.7 227.631 316.252 227.993 316.252 229.21V239.495C316.207 240.014 316.308 240.534 316.543 240.998C316.779 241.462 317.139 241.851 317.584 242.12C318.48 242.664 318.928 242.301 318.928 241.064Z" fill="#7C1DC9"/>
</g>
<g style="mix-blend-mode:color-dodge" opacity="0.5">
<path d="M323.234 228.986L325.814 230.469V246.633L330.078 249.087V251.776L323.256 247.839L323.234 228.986Z" fill="#7C1DC9"/>
</g>
<g style="mix-blend-mode:color-dodge" opacity="0.5">
<path d="M41.0728 99.8201L38.2372 88.9691L40.9555 90.5375L42.6931 97.6861L44.4734 92.6288L46.9145 94.0372L44.0789 101.613L47.0531 112.976L44.3348 111.397L42.4586 103.746L40.5291 109.209L38.0986 107.801L41.0728 99.8201Z" fill="#9F19AB"/>
</g>
<g style="mix-blend-mode:color-dodge" opacity="0.5">
<path d="M48.3 94.7947L51.9778 96.9286L53.6301 111.365L55.2717 98.8278L58.9601 100.962V119.815L56.519 118.406V104.141L54.6961 117.307L52.5641 116.059L50.6879 100.695V114.971L48.3 113.69V94.7947Z" fill="#9F19AB"/>
</g>
<g style="mix-blend-mode:color-dodge" opacity="0.5">
<path d="M60.9326 102.082L63.5124 103.576V119.729L67.7764 122.183V124.872L60.9539 120.935L60.9326 102.082Z" fill="#9F19AB"/>
</g>
<path style="mix-blend-mode:screen" d="M275.104 31.4282C275.84 32.828 276.206 34.3923 276.17 35.9735V37.83C276.17 39.7611 275.701 41.0308 274.731 41.639C274.311 41.9085 273.822 42.0494 273.324 42.0444C272.544 42.0098 271.784 41.7904 271.106 41.4043V48.0727L311.071 70.3081V51.6684L275.104 31.4282Z" fill="url(#paint2_linear_179_967)"/>
<path style="mix-blend-mode:screen" d="M353.338 160.188L353.424 160.317C354.151 161.727 354.517 163.296 354.49 164.883V167.518L350.854 165.385C351.057 165.726 351.281 166.099 351.537 166.452C352.463 167.843 353.241 169.327 353.861 170.879C354.311 172.103 354.542 173.396 354.543 174.699C354.543 176.641 354.053 177.9 353.072 178.561L352.837 178.668L370 188.185V169.61L353.338 160.188Z" fill="url(#paint3_linear_179_967)"/>
<path style="mix-blend-mode:screen" opacity="0.7" d="M326.88 231.045V246.014L331.123 248.468V252.267L366.408 271.899V253.248L326.88 231.045Z" fill="url(#paint4_linear_179_967)"/>
<path style="mix-blend-mode:screen" opacity="0.5" d="M36.99 88.4251L-5 64.8987V83.7411L37.1606 107.193L39.9535 99.7561L36.99 88.4251Z" fill="url(#paint5_linear_179_967)"/>
</g>
<path d="M12.8016 231.254C22.5414 226.822 26.3705 215.567 21.3541 206.115C16.3377 196.663 4.37538 192.593 -5.36446 197.025C-15.1043 201.457 -18.9334 212.712 -13.917 222.164C-8.90058 231.616 3.06171 235.686 12.8016 231.254Z" fill="url(#paint6_radial_179_967)"/>
<path d="M381.035 493.197C400.904 484.156 408.715 461.195 398.482 441.913C388.248 422.631 363.845 414.329 343.976 423.37C324.107 432.411 316.296 455.371 326.529 474.654C336.763 493.936 361.165 502.238 381.035 493.197Z" fill="url(#paint7_radial_179_967)"/>
</g>
<defs>
<radialGradient id="paint0_radial_179_967" cx="0" cy="0" r="1" gradientUnits="userSpaceOnUse" gradientTransform="translate(230.428 131.481) rotate(-161.482) scale(573.78 1177.25)">
<stop stop-color="#2E3192"/>
<stop offset="0.06" stop-color="#2A2D86"/>
<stop offset="0.38" stop-color="#181A4D"/>
<stop offset="0.66" stop-color="#0B0C23"/>
<stop offset="0.87" stop-color="#030309"/>
<stop offset="1"/>
</radialGradient>
<radialGradient id="paint1_radial_179_967" cx="0" cy="0" r="1" gradientUnits="userSpaceOnUse" gradientTransform="translate(230.428 131.481) rotate(-161.482) scale(573.78 1177.25)">
<stop stop-color="#2E3192"/>
<stop offset="0.06" stop-color="#2A2D86"/>
<stop offset="0.38" stop-color="#181A4D"/>
<stop offset="0.66" stop-color="#0B0C23"/>
<stop offset="0.87" stop-color="#030309"/>
<stop offset="1"/>
</radialGradient>
<linearGradient id="paint2_linear_179_967" x1="269.486" y1="27.7045" x2="311.813" y2="70.9853" gradientUnits="userSpaceOnUse">
<stop stop-color="#45108A"/>
<stop offset="0.16" stop-color="#300B60"/>
<stop offset="0.32" stop-color="#1F073D"/>
<stop offset="0.49" stop-color="#110423"/>
<stop offset="0.65" stop-color="#08020F"/>
<stop offset="0.82" stop-color="#020004"/>
<stop offset="1"/>
</linearGradient>
<linearGradient id="paint3_linear_179_967" x1="347.731" y1="160.146" x2="373.082" y2="186.072" gradientUnits="userSpaceOnUse">
<stop stop-color="#45108A"/>
<stop offset="0.16" stop-color="#300B60"/>
<stop offset="0.32" stop-color="#1F073D"/>
<stop offset="0.49" stop-color="#110423"/>
<stop offset="0.65" stop-color="#08020F"/>
<stop offset="0.82" stop-color="#020004"/>
<stop offset="1"/>
</linearGradient>
<linearGradient id="paint4_linear_179_967" x1="322.296" y1="225.635" x2="367.707" y2="272.072" gradientUnits="userSpaceOnUse">
<stop stop-color="#45108A"/>
<stop offset="0.16" stop-color="#300B60"/>
<stop offset="0.32" stop-color="#1F073D"/>
<stop offset="0.49" stop-color="#110423"/>
<stop offset="0.65" stop-color="#08020F"/>
<stop offset="0.82" stop-color="#020004"/>
<stop offset="1"/>
</linearGradient>
<linearGradient id="paint5_linear_179_967" x1="46.1577" y1="103.597" x2="-2.72996" y2="75.2646" gradientUnits="userSpaceOnUse">
<stop stop-color="#6B24D6"/>
<stop offset="0.06" stop-color="#5E20BD"/>
<stop offset="0.19" stop-color="#46178B"/>
<stop offset="0.32" stop-color="#301060"/>
<stop offset="0.45" stop-color="#1F0A3E"/>
<stop offset="0.58" stop-color="#110623"/>
<stop offset="0.72" stop-color="#08030F"/>
<stop offset="0.86" stop-color="#020104"/>
<stop offset="1"/>
</linearGradient>
<radialGradient id="paint6_radial_179_967" cx="0" cy="0" r="1" gradientUnits="userSpaceOnUse" gradientTransform="translate(12.4819 195.678) rotate(52.9295) scale(39.284 38.4706)">
<stop stop-color="#ED1E79"/>
<stop offset="0.81" stop-color="#1B1464"/>
<stop offset="1" stop-color="#662D91"/>
</radialGradient>
<radialGradient id="paint7_radial_179_967" cx="0" cy="0" r="1" gradientUnits="userSpaceOnUse" gradientTransform="translate(380.383 420.623) rotate(52.9295) scale(80.1387 78.4794)">
<stop stop-color="#ED1E79"/>
<stop offset="0.81" stop-color="#1B1464"/>
<stop offset="1" stop-color="#662D91"/>
</radialGradient>
</defs>
</svg>
