<svg width="13" height="13" viewBox="0 0 13 13" fill="none" xmlns="http://www.w3.org/2000/svg">
<path d="M6.6286 3.87934C4.9416 3.87934 3.5801 5.24086 3.5801 6.92789C3.5801 8.61493 4.9416 9.97645 6.6286 9.97645C8.3156 9.97645 9.67709 8.61493 9.67709 6.92789C9.67709 5.24086 8.3156 3.87934 6.6286 3.87934ZM6.6286 8.90923C5.53762 8.90923 4.6473 8.01889 4.6473 6.92789C4.6473 5.8369 5.53762 4.94656 6.6286 4.94656C7.71958 4.94656 8.6099 5.8369 8.6099 6.92789C8.6099 8.01889 7.71958 8.90923 6.6286 8.90923ZM9.80195 3.044C9.40806 3.044 9.08999 3.36209 9.08999 3.75597C9.08999 4.14986 9.40806 4.46795 9.80195 4.46795C10.1958 4.46795 10.5139 4.15135 10.5139 3.75597C10.514 3.66244 10.4957 3.56981 10.4599 3.48338C10.4242 3.39694 10.3718 3.31841 10.3056 3.25227C10.2395 3.18614 10.161 3.1337 10.0745 3.09796C9.98811 3.06222 9.89547 3.04388 9.80195 3.044ZM12.571 6.92789C12.571 6.10742 12.5784 5.29437 12.5324 4.47538C12.4863 3.5241 12.2693 2.67984 11.5737 1.98422C10.8766 1.28711 10.0338 1.07159 9.08255 1.02551C8.26209 0.97943 7.44906 0.986862 6.63008 0.986862C5.80962 0.986862 4.99659 0.97943 4.17762 1.02551C3.22635 1.07159 2.38211 1.2886 1.6865 1.98422C0.989405 2.68133 0.773884 3.5241 0.727808 4.47538C0.681731 5.29586 0.689163 6.1089 0.689163 6.92789C0.689163 7.74689 0.681731 8.56142 0.727808 9.38041C0.773884 10.3317 0.990891 11.1759 1.6865 11.8716C2.3836 12.5687 3.22635 12.7842 4.17762 12.8303C4.99808 12.8764 5.81111 12.8689 6.63008 12.8689C7.45055 12.8689 8.26358 12.8764 9.08255 12.8303C10.0338 12.7842 10.8781 12.5672 11.5737 11.8716C12.2708 11.1745 12.4863 10.3317 12.5324 9.38041C12.5799 8.56142 12.571 7.74837 12.571 6.92789ZM11.263 10.4328C11.1545 10.7033 11.0237 10.9054 10.8141 11.1135C10.6046 11.3231 10.4039 11.4539 10.1334 11.5624C9.35158 11.8731 7.49514 11.8032 6.6286 11.8032C5.76206 11.8032 3.90413 11.8731 3.12231 11.5639C2.8518 11.4554 2.64965 11.3246 2.44156 11.115C2.23199 10.9054 2.10119 10.7048 1.99269 10.4342C1.68353 9.65093 1.75339 7.79445 1.75339 6.92789C1.75339 6.06134 1.68353 4.20337 1.99269 3.42154C2.10119 3.15102 2.23199 2.94887 2.44156 2.74078C2.65114 2.53269 2.8518 2.4004 3.12231 2.2919C3.90413 1.98273 5.76206 2.05259 6.6286 2.05259C7.49514 2.05259 9.35307 1.98273 10.1349 2.2919C10.4054 2.4004 10.6075 2.5312 10.8156 2.74078C11.0252 2.95036 11.156 3.15102 11.2645 3.42154C11.5737 4.20337 11.5038 6.06134 11.5038 6.92789C11.5038 7.79445 11.5737 9.65093 11.263 10.4328Z" fill="#818181"/>
</svg>
