<svg width="15" height="15" viewBox="0 0 15 15" fill="none" xmlns="http://www.w3.org/2000/svg">
<path d="M1.90142 3.86868C2.85871 3.86868 3.63474 3.09264 3.63474 2.13535C3.63474 1.17806 2.85871 0.402023 1.90142 0.402023C0.944127 0.402023 0.168091 1.17806 0.168091 2.13535C0.168091 3.09264 0.944127 3.86868 1.90142 3.86868Z" fill="#818181"/>
<path d="M5.27156 5.18167V14.7981H8.25734V10.0426C8.25734 8.78775 8.49342 7.57252 10.0493 7.57252C11.5838 7.57252 11.6028 9.00719 11.6028 10.1218V14.7989H14.5902V9.52529C14.5902 6.93481 14.0325 4.94402 11.0047 4.94402C9.551 4.94402 8.5766 5.74176 8.17812 6.49672H8.13772V5.18167H5.27156ZM0.405884 5.18167H3.39643V14.7981H0.405884V5.18167Z" fill="#818181"/>
</svg>
