<svg width="14" height="13" viewBox="0 0 14 13" fill="none" xmlns="http://www.w3.org/2000/svg">
<path d="M13.8957 1.60578C13.4004 1.83781 12.8615 2.0048 12.3063 2.06984C12.8827 1.69795 13.3143 1.11042 13.5202 0.417481C12.9794 0.766919 12.3869 1.01195 11.769 1.14171C11.5108 0.841868 11.1985 0.603002 10.8515 0.439994C10.5045 0.276986 10.1304 0.193329 9.75239 0.194236C8.22293 0.194236 6.99289 1.54074 6.99289 3.1931C6.99289 3.42513 7.01878 3.65717 7.06086 3.88041C4.77072 3.75033 2.7282 2.56204 1.3703 0.74268C1.12287 1.20168 0.993215 1.7243 0.994811 2.25617C0.994811 3.29681 1.48197 4.2144 2.22485 4.75405C1.78706 4.73533 1.35952 4.60463 0.977008 4.3726V4.40952C0.977008 5.86676 1.92544 7.07439 3.18947 7.35213C2.95213 7.41908 2.70798 7.45334 2.46277 7.45408C2.28312 7.45408 2.11318 7.43475 1.94162 7.40838C2.29121 8.59667 3.30923 9.45977 4.52147 9.48789C3.57304 10.2947 2.38508 10.7694 1.09516 10.7694C0.863715 10.7694 0.650076 10.7606 0.428345 10.7324C1.65191 11.585 3.10369 12.0772 4.66713 12.0772C9.74268 12.0772 12.52 7.51033 12.52 3.54642C12.52 3.41634 12.52 3.28626 12.5119 3.15618C13.0492 2.72903 13.5202 2.19992 13.8957 1.60578Z" fill="#818181"/>
</svg>
