<svg width="375" height="812" viewBox="0 0 375 812" fill="none" xmlns="http://www.w3.org/2000/svg">
<g clip-path="url(#clip0_105_292)">
<mask id="mask0_105_292" style="mask-type:alpha" maskUnits="userSpaceOnUse" x="0" y="0" width="375" height="812">
<path d="M375 0H0V777.07C152.025 823.875 234.049 823.411 375 777.07V0Z" fill="url(#paint0_radial_105_292)"/>
</mask>
<g mask="url(#mask0_105_292)">
<path d="M375 0H0V812H375V0Z" fill="url(#paint1_radial_105_292)"/>
<path d="M375 316C387.703 316 398 305.703 398 293C398 280.298 387.703 270 375 270C362.297 270 352 280.298 352 293C352 305.703 362.297 316 375 316Z" fill="url(#paint2_radial_105_292)"/>
<path d="M242.249 26.0257C257.007 19.3102 262.81 2.25556 255.208 -12.0668C247.607 -26.3893 229.481 -32.5559 214.723 -25.8404C199.964 -19.1249 194.162 -2.07042 201.763 12.2521C209.364 26.5745 227.49 32.7412 242.249 26.0257Z" fill="url(#paint3_radial_105_292)"/>
<path d="M42.47 694.523C78.7807 678.001 93.0558 636.041 74.3544 600.804C55.6529 565.566 11.0569 550.394 -25.2538 566.916C-61.5644 583.438 -75.8394 625.398 -57.138 660.636C-38.4366 695.874 6.15937 711.046 42.47 694.523Z" fill="url(#paint4_radial_105_292)"/>
<path d="M375.898 530.612C390.561 523.94 396.326 506.995 388.774 492.765C381.222 478.536 363.213 472.409 348.55 479.081C333.887 485.753 328.122 502.697 335.674 516.927C343.226 531.157 361.235 537.284 375.898 530.612Z" fill="url(#paint5_radial_105_292)"/>
<path style="mix-blend-mode:screen" opacity="0.28" d="M458.167 319.269C534.842 259.622 562.297 166.658 519.488 111.628C476.679 56.5986 379.818 60.3417 303.143 119.989C226.468 179.636 199.013 272.6 241.822 327.63C284.631 382.66 381.492 378.916 458.167 319.269Z" fill="url(#paint6_radial_105_292)"/>
<path style="mix-blend-mode:screen" opacity="0.28" d="M309.945 212.281C386.621 152.634 414.075 59.6702 371.266 4.64038C328.458 -50.3894 231.597 -46.6463 154.921 13.0008C78.2461 72.6479 50.7918 165.612 93.6005 220.642C136.409 275.672 233.27 271.928 309.945 212.281Z" fill="url(#paint7_radial_105_292)"/>
<path style="mix-blend-mode:screen" opacity="0.28" d="M301.857 698.281C378.532 638.634 405.987 545.67 363.178 490.64C320.369 435.61 223.508 439.354 146.833 499.001C70.1577 558.648 42.7034 651.612 85.5121 706.642C128.321 761.672 225.182 757.928 301.857 698.281Z" fill="url(#paint8_radial_105_292)"/>
<path style="mix-blend-mode:screen" opacity="0.28" d="M178.932 319.308C276.096 319.308 354.863 303.716 354.863 284.482C354.863 265.248 276.096 249.656 178.932 249.656C81.7686 249.656 3.00171 265.248 3.00171 284.482C3.00171 303.716 81.7686 319.308 178.932 319.308Z" fill="url(#paint9_radial_105_292)"/>
<path style="mix-blend-mode:screen" opacity="0.28" d="M175.931 783.308C273.095 783.308 351.862 767.716 351.862 748.482C351.862 729.248 273.095 713.656 175.931 713.656C78.7669 713.656 0 729.248 0 748.482C0 767.716 78.7669 783.308 175.931 783.308Z" fill="url(#paint10_radial_105_292)"/>
<path style="mix-blend-mode:screen" opacity="0.46" d="M171.165 205.805C178.612 179.918 156.59 150.859 121.976 140.901C87.362 130.943 53.2645 143.856 45.817 169.744C38.3695 195.631 60.3921 224.689 95.006 234.647C129.62 244.606 163.717 231.692 171.165 205.805Z" fill="url(#paint11_radial_105_292)"/>
<path style="mix-blend-mode:color-dodge" opacity="0.46" d="M507.844 144.776C520.473 101.476 483.773 52.6847 425.872 35.797C367.972 18.9093 310.796 40.3204 298.167 83.6199C285.538 126.92 322.238 175.711 380.139 192.599C438.039 209.487 495.215 188.076 507.844 144.776Z" fill="url(#paint12_radial_105_292)"/>
<g style="mix-blend-mode:color-dodge">
<g opacity="0.3">
<path d="M80.6796 68.7592C80.4784 69.1616 80.2772 69.5543 80.0856 69.9567C79.894 70.359 79.6929 70.7518 79.5108 71.1542C79.3288 71.5565 79.1372 71.9589 78.9648 72.3517C78.7923 72.7444 78.6103 73.1564 78.4379 73.5587L76.2537 72.8881C76.4357 72.457 76.6177 72.0259 76.8093 71.5948C77.0009 71.1637 77.2021 70.7327 77.4032 70.3016C77.6044 69.8705 77.8056 69.4394 78.0164 69.0083L78.6582 67.7246C79.1468 66.7666 79.6162 65.8086 80.1623 64.9176C80.7083 64.0267 81.2065 63.0975 81.7525 62.2065C82.2986 61.3156 82.8542 60.4534 83.429 59.6008C84.0038 58.7482 84.5882 57.9147 85.1821 57.0908L86.7437 58.8823C86.1976 59.6391 85.6516 60.4151 85.1151 61.2102C84.5786 62.0053 84.0709 62.8101 83.5632 63.6244C83.0554 64.4386 82.5572 65.2913 82.0782 66.1439C81.5992 66.9965 81.1298 67.8587 80.6796 68.7592Z" fill="#0098FF"/>
<path d="M76.9623 77.4386C76.4738 78.7798 76.0044 80.1306 75.6499 81.4813C75.2954 82.8321 74.9122 84.1733 74.6057 85.5145C74.2991 86.8557 74.05 88.2064 73.8393 89.538C73.6285 90.8697 73.4561 92.2108 73.3315 93.5329L70.6875 94.4142C70.8312 92.9868 71.0132 91.5403 71.2527 90.1033C71.4922 88.6663 71.77 87.2293 72.0958 85.7636C72.4215 84.2978 72.8047 82.8896 73.2262 81.4143C73.6477 79.9389 74.1267 78.5403 74.644 77.0554L76.9623 77.4386Z" fill="#0098FF"/>
<path d="M100.625 41.5811L101.113 44.5701C100.05 45.3173 98.9963 46.122 97.9617 46.9651C96.927 47.8081 95.9211 48.6799 94.9344 49.6091C93.9477 50.5384 93.0184 51.5251 92.0604 52.4831C91.1024 53.4411 90.2019 54.5332 89.3014 55.6157L87.9219 53.5656C88.8863 52.3969 89.8762 51.2696 90.8917 50.1839C91.9071 49.0918 92.9513 48.0476 94.0051 47.0417C95.0589 46.0358 96.1606 45.1257 97.2719 44.1677C98.3832 43.2097 99.4849 42.405 100.625 41.5811Z" fill="#0098FF"/>
<path d="M73.0731 97.4607C73.0731 98.7923 73.0731 100.105 73.121 101.398C73.1689 102.691 73.3031 103.985 73.4659 105.23C73.6288 106.476 73.8395 107.75 74.0982 108.966C74.3569 110.183 74.6826 111.4 75.0562 112.568L72.4025 115.059C72.0193 113.775 71.6936 112.473 71.4445 111.131C71.1955 109.79 70.956 108.449 70.7835 107.069C70.6111 105.69 70.5153 104.31 70.4482 102.902C70.3812 101.494 70.3812 100.086 70.4482 98.6486L73.0731 97.4607Z" fill="#0098FF"/>
<path d="M119.018 33.3711L118.06 37.1552C116.872 37.3605 115.695 37.6292 114.535 37.9599C113.376 38.2856 112.207 38.6784 111.058 39.1287C109.908 39.5789 108.768 40.0867 107.638 40.6327C106.507 41.1788 105.396 41.7919 104.294 42.4529L104.064 39.2724C105.252 38.5539 106.459 37.8833 107.676 37.2702C108.892 36.657 110.128 36.0918 111.374 35.6032C112.619 35.1147 113.884 34.6453 115.148 34.2908C116.422 33.9187 117.714 33.6117 119.018 33.3711Z" fill="#0098FF"/>
<path d="M84.3678 127.025L82.356 131C81.3886 130.176 80.4795 129.287 79.6353 128.337C78.7931 127.405 78.0122 126.419 77.2978 125.386C76.5774 124.353 75.9185 123.278 75.3243 122.168C74.7271 121.052 74.1868 119.908 73.7053 118.738L76.2823 115.941C76.7373 117.008 77.2489 118.051 77.8151 119.064C78.374 120.055 78.9881 121.015 79.6544 121.938C80.3297 122.87 81.059 123.763 81.8387 124.61C82.6265 125.471 83.4715 126.278 84.3678 127.025Z" fill="#0098FF"/>
<path d="M122.765 32.9016C123.544 32.8441 124.32 32.8154 125.092 32.8154C125.868 32.8154 126.644 32.8154 127.42 32.892C128.196 32.9687 128.982 33.0453 129.748 33.1603C130.515 33.2752 131.3 33.4381 132.067 33.6201L133.427 33.9841C133.877 34.1183 134.318 34.262 134.759 34.4152C135.199 34.5685 135.63 34.741 136.052 34.9134C136.473 35.0858 136.905 35.2774 137.316 35.4786L134.816 39.3681C134.442 39.186 134.059 39.004 133.666 38.8316C133.274 38.6591 132.891 38.5059 132.488 38.3622C132.086 38.2185 131.693 38.0748 131.281 37.9407C130.869 37.8065 130.467 37.6916 130.045 37.5862C129.346 37.4042 128.637 37.2509 127.928 37.1264C127.219 37.0018 126.52 36.906 125.801 36.839C125.083 36.7719 124.384 36.7432 123.675 36.7336C122.966 36.724 122.247 36.7336 121.538 36.7815L122.765 32.9016Z" fill="#0098FF"/>
<path d="M87.1556 129.017C88.1474 129.632 89.1851 130.171 90.2595 130.627C91.3382 131.092 92.4492 131.48 93.5837 131.786C94.7384 132.092 95.9132 132.316 97.0995 132.456C98.3195 132.61 99.5488 132.678 100.778 132.657L100.165 137.447C98.8191 137.439 97.4751 137.343 96.1415 137.16C94.8467 136.975 93.5663 136.699 92.3096 136.336C91.0739 135.984 89.8666 135.539 88.6979 135.005C87.538 134.479 86.4174 133.871 85.345 133.184L87.1556 129.017Z" fill="#0098FF"/>
<path d="M147.126 52.6649C146.566 51.4515 145.926 50.2769 145.21 49.1491C144.547 48.0646 143.814 47.0246 143.016 46.0356C142.242 45.0849 141.403 44.1887 140.506 43.3532C139.629 42.5367 138.694 41.7844 137.708 41.1019L140.515 37.27C141.609 37.9883 142.647 38.7889 143.619 39.665C144.621 40.5558 145.559 41.5162 146.426 42.5389C147.319 43.6055 148.141 44.7287 148.888 45.9015C149.665 47.1346 150.366 48.4144 150.986 49.7335L147.126 52.6649Z" fill="#0098FF"/>
<path d="M104.629 132.361C105.995 132.167 107.348 131.892 108.681 131.537C110.082 131.16 111.46 130.706 112.81 130.176C114.229 129.611 115.617 128.972 116.968 128.26C118.367 127.542 119.746 126.728 121.126 125.837L122.544 130.291C121.02 131.249 119.488 132.14 117.955 132.916C116.462 133.665 114.93 134.333 113.366 134.918C111.881 135.484 110.365 135.964 108.825 136.355C107.365 136.724 105.884 137.002 104.39 137.189L104.629 132.361Z" fill="#0098FF"/>
<path d="M150.489 75.5227C150.642 73.7696 150.719 72.0548 150.709 70.3687C150.699 68.6827 150.613 67.0637 150.45 65.4638C150.295 63.9107 150.061 62.3664 149.751 60.8367C149.453 59.3873 149.079 57.9547 148.63 56.5449L152.74 53.9871C153.249 55.5284 153.677 57.0953 154.024 58.6812C154.386 60.3551 154.661 62.0466 154.847 63.749C155.039 65.5021 155.154 67.3031 155.173 69.1425C155.192 70.9818 155.173 72.8882 154.982 74.8138L150.489 75.5227Z" fill="#0098FF"/>
<path d="M126.989 127.159L125.14 122.963C126.462 121.918 127.765 120.788 129.029 119.59C130.294 118.393 131.558 117.1 132.775 115.758C133.992 114.417 135.17 112.961 136.31 111.457C137.45 109.953 138.552 108.372 139.596 106.734L143.016 109.302C141.857 111.122 140.65 112.856 139.376 114.523C138.102 116.19 136.808 117.761 135.457 119.255C134.107 120.75 132.718 122.129 131.3 123.48C129.882 124.831 128.455 126.019 126.989 127.159Z" fill="#0098FF"/>
<path d="M143.064 100.622C143.907 98.9744 144.673 97.3075 145.373 95.6406C146.072 93.9737 146.714 92.3068 147.289 90.6303C147.863 88.9538 148.342 87.2965 148.764 85.6391C149.185 83.9818 149.53 82.3437 149.818 80.7151L154.263 80.5522C153.966 82.3532 153.583 84.1734 153.123 85.9936C152.663 87.8138 152.165 89.6723 151.513 91.5212C150.862 93.3701 150.201 95.2191 149.435 97.0584C148.668 98.8978 147.806 100.747 146.877 102.567C146.819 102.682 146.762 102.797 146.695 102.912L146.522 103.247C146.455 103.362 146.398 103.477 146.34 103.592L146.158 103.937L142.432 101.868C142.48 101.763 142.535 101.66 142.594 101.561L142.757 101.245C142.815 101.149 142.863 101.044 142.92 100.938C142.978 100.833 143.064 100.728 143.064 100.622Z" fill="#0098FF"/>
</g>
<g opacity="0.3">
<path d="M94.1012 75.7337C94.1399 75.6653 94.175 75.5949 94.2065 75.5229L94.3215 75.3026C94.3604 75.2343 94.3956 75.1639 94.4269 75.0918L94.5418 74.8715L94.6376 74.6799L94.743 74.4787L94.8388 74.2871C94.8388 74.2296 94.9059 74.1626 94.9442 74.0955L95.6914 74.5074C95.6634 74.5732 95.6314 74.6372 95.5956 74.699L95.4998 74.8811C95.4998 74.9481 95.4328 75.0056 95.404 75.0727C95.3683 75.1345 95.3363 75.1985 95.3082 75.2643C95.2674 75.3315 95.2322 75.402 95.2029 75.475L95.0879 75.6858C95.0566 75.7579 95.0214 75.8282 94.9825 75.8965C94.9512 75.9686 94.9161 76.039 94.8771 76.1073L94.1012 75.7337Z" fill="#0098FF"/>
<path d="M96.6014 72.8116L95.8733 72.3518C95.9499 72.2177 96.0266 72.0836 96.0936 71.9494L96.3235 71.5471L96.5535 71.1447L96.7834 70.7424L97.4827 71.2501L97.2624 71.6333L97.042 72.0261C96.9654 72.1602 96.8888 72.2847 96.8217 72.4188L96.6014 72.8116Z" fill="#0098FF"/>
<path d="M92.4724 79.1824C92.5395 79.0483 92.6065 78.9046 92.664 78.7704C92.7215 78.6363 92.7885 78.483 92.8556 78.3489C92.9227 78.2148 92.9802 78.0615 93.0472 77.9274L93.2484 77.5059L94.0435 77.822C93.986 77.9561 93.919 78.0998 93.8519 78.234L93.6699 78.6363L93.4879 79.0482C93.4208 79.1824 93.3633 79.3165 93.2963 79.4602L92.4724 79.1824Z" fill="#0098FF"/>
<path d="M97.7893 69.0469L98.0288 68.6541L98.2779 68.2613L98.5174 67.8686L98.7665 67.4854L99.4179 68.0793L99.1784 68.4625C99.0922 68.5871 99.0155 68.7116 98.9389 68.8361C98.8623 68.9607 98.7761 69.0948 98.6994 69.2193C98.6228 69.3439 98.5461 69.478 98.4599 69.6025L97.7893 69.0469Z" fill="#0098FF"/>
<path d="M92.5396 81.2132L92.3768 81.6347L92.2043 82.0467L92.0319 82.4586C91.984 82.6023 91.9265 82.7364 91.869 82.8801L91.0068 82.7077L91.1697 82.2766L91.3421 81.8551C91.3996 81.7114 91.4571 81.5677 91.5242 81.424L91.6966 80.9929L92.5396 81.2132Z" fill="#0098FF"/>
<path d="M99.8491 65.8377L100.108 65.4545L100.366 65.0713L100.635 64.688L100.903 64.3145L101.487 65.0042L101.229 65.3683C101.142 65.4928 101.056 65.6173 100.98 65.7419L100.721 66.1155C100.635 66.2304 100.548 66.355 100.472 66.4795L99.8491 65.8377Z" fill="#0098FF"/>
<path d="M91.1982 84.6716C91.1407 84.8153 91.0929 84.9494 91.045 85.0931C90.9971 85.2368 90.9396 85.3709 90.8917 85.5146C90.8438 85.6583 90.7959 85.802 90.7384 85.9361L90.5947 86.3672L89.6367 86.2906L89.79 85.8595C89.8379 85.7158 89.8954 85.5721 89.9433 85.4188L90.0965 84.9877L90.2594 84.5566L91.1982 84.6716Z" fill="#0098FF"/>
<path d="M102.052 62.7146L102.33 62.341L102.608 61.9673L102.886 61.5937L103.173 61.2297L103.7 62.0248L103.422 62.3793L103.154 62.7337C103.058 62.8487 102.972 62.9732 102.886 63.0978L102.608 63.4522L102.052 62.7146Z" fill="#0098FF"/>
<path d="M90.0007 88.1876C89.9528 88.3217 89.9145 88.4654 89.8666 88.6091C89.8187 88.7528 89.7803 88.8965 89.7324 89.0402C89.6845 89.1839 89.6462 89.3276 89.6079 89.4713C89.5696 89.615 89.5217 89.7587 89.4834 89.9024H88.5254L88.6499 89.4617C88.6978 89.3084 88.7457 89.1647 88.784 89.021C88.8224 88.8773 88.8799 88.7241 88.9182 88.5708L89.0619 88.1301L90.0007 88.1876Z" fill="#0098FF"/>
<path d="M104.399 59.6776C104.505 59.5626 104.601 59.4381 104.696 59.3231L104.993 58.9591C105.089 58.8441 105.195 58.7292 105.29 58.6046C105.386 58.4801 105.492 58.3747 105.587 58.2502L106.057 59.1411L105.76 59.486L105.472 59.8213L105.185 60.1757L104.898 60.5206L104.399 59.6776Z" fill="#0098FF"/>
<path d="M88.9761 91.7417L88.8611 92.1824L88.7461 92.6135C88.7461 92.7572 88.6791 92.9009 88.6408 93.0446C88.6025 93.1883 88.5737 93.3416 88.5354 93.4853L87.5774 93.629C87.5774 93.4757 87.6445 93.332 87.6828 93.1787L87.7977 92.7285L87.9127 92.2878L88.0277 91.8375L88.9761 91.7417Z" fill="#0098FF"/>
<path d="M106.89 56.7654L107.206 56.4205L107.513 56.0757L107.829 55.7308L108.145 55.3955L108.538 56.3535L108.231 56.6792L107.925 57.0145L107.618 57.321L107.321 57.6563L106.89 56.7654Z" fill="#0098FF"/>
<path d="M88.1132 95.3438C88.1132 95.4971 88.0461 95.6408 88.0173 95.7845L87.9311 96.2252L87.8449 96.6659L87.7587 97.1065L86.7336 97.3652L86.8199 96.9149C86.8199 96.7616 86.8869 96.6084 86.9157 96.4551C86.9444 96.3018 86.9731 96.1581 87.0114 96.0048C87.0498 95.8516 87.0689 95.6983 87.1072 95.5546L88.1132 95.3438Z" fill="#0098FF"/>
<path d="M109.534 53.968L109.869 53.6327L110.195 53.3069L110.521 52.9812C110.636 52.8759 110.751 52.7705 110.856 52.6555L111.172 53.7285L110.847 54.0446L110.53 54.3607L110.205 54.6769L109.889 54.993L109.534 53.968Z" fill="#0098FF"/>
<path d="M87.4237 98.9937C87.4237 99.1374 87.3758 99.2906 87.3566 99.4343C87.3375 99.578 87.3087 99.7313 87.28 99.875L87.2225 100.325C87.2225 100.469 87.2225 100.622 87.1555 100.766L86.1017 101.14C86.1017 100.986 86.1016 100.833 86.1687 100.68C86.2358 100.526 86.2166 100.383 86.2358 100.229C86.2549 100.076 86.2837 99.9229 86.3124 99.7696C86.3412 99.6163 86.3603 99.4631 86.389 99.3098L87.4237 98.9937Z" fill="#0098FF"/>
<path d="M112.284 51.3047L112.629 50.9885L112.974 50.6724L113.319 50.3659L113.663 50.0593L113.903 51.228C113.788 51.3238 113.673 51.4196 113.568 51.525L113.223 51.822L112.887 52.119L112.562 52.416L112.284 51.3047Z" fill="#0098FF"/>
<path d="M86.9159 102.672C86.9159 102.816 86.9158 102.969 86.8679 103.113C86.82 103.257 86.8679 103.42 86.8679 103.563C86.8679 103.707 86.8679 103.86 86.8679 104.014C86.8679 104.167 86.8679 104.31 86.8679 104.454L85.7854 104.952C85.7854 104.799 85.7854 104.646 85.7854 104.492C85.7854 104.339 85.7854 104.186 85.8333 104.033C85.8812 103.879 85.8333 103.717 85.8812 103.563L85.9387 103.103L86.9159 102.672Z" fill="#0098FF"/>
<path d="M115.177 48.7757L115.541 48.4787L115.905 48.1913L116.26 47.8943L116.633 47.6069L116.777 48.8714L116.422 49.1493L116.068 49.4271L115.723 49.7049L115.369 49.9923L115.177 48.7757Z" fill="#0098FF"/>
<path d="M86.5998 106.37C86.5998 106.523 86.5998 106.667 86.5998 106.82V107.271C86.5998 107.424 86.5998 107.568 86.5998 107.721C86.5998 107.874 86.5998 108.018 86.5998 108.171L85.4885 108.784C85.4885 108.631 85.4885 108.478 85.4885 108.324C85.4885 108.171 85.4885 108.018 85.4885 107.855V107.395V106.926L86.5998 106.37Z" fill="#0098FF"/>
<path d="M119.727 45.3174L119.775 46.6682L119.411 46.9268L119.037 47.1855L118.673 47.4441L118.309 47.7124L118.204 46.4095L118.587 46.1317L118.961 45.8539L119.344 45.5856L119.727 45.3174Z" fill="#0098FF"/>
<path d="M86.4847 110.087V110.969C86.4847 111.122 86.4847 111.275 86.4847 111.419C86.4847 111.562 86.4847 111.725 86.4847 111.869L85.3542 112.616C85.3542 112.463 85.3542 112.31 85.3542 112.156V110.777L86.4847 110.087Z" fill="#0098FF"/>
<path d="M122.946 44.6563L122.563 44.8862L122.179 45.1257L121.796 45.3652L121.423 45.6047V44.206L121.815 43.9474L122.208 43.6983L122.601 43.4492L123.003 43.2097L122.946 44.6563Z" fill="#0098FF"/>
<path d="M86.7054 115.605L85.5558 116.496C85.5558 116.333 85.5558 116.18 85.5558 116.027V115.557V115.098C85.5558 114.944 85.5558 114.781 85.5558 114.628L86.5425 113.843C86.5425 113.986 86.5425 114.14 86.5425 114.293V114.733C86.5425 114.887 86.5425 115.04 86.5425 115.184C86.5425 115.327 86.6862 115.462 86.7054 115.605Z" fill="#0098FF"/>
<path d="M126.136 42.8265L125.743 43.0372L125.341 43.248L124.948 43.4683L124.555 43.6887L124.661 42.1942L125.063 41.9643L125.475 41.7344L125.877 41.514L126.289 41.2937L126.136 42.8265Z" fill="#0098FF"/>
<path d="M86.8869 117.521L86.9444 117.971L87.0019 118.412L87.0593 118.862C87.0593 119.006 87.0593 119.159 87.1264 119.303L85.9768 120.338C85.9768 120.184 85.9289 120.031 85.9097 119.868L85.8523 119.408L85.7948 118.949L85.7373 118.479L86.8869 117.521Z" fill="#0098FF"/>
<path d="M129.489 41.2267L129.077 41.4087L128.665 41.5907L128.263 41.7823L127.851 41.9739L128.071 40.3932L128.483 40.1825L128.914 39.9909L129.336 39.7897L129.757 39.5981L129.489 41.2267Z" fill="#0098FF"/>
<path d="M87.4429 121.2L87.5291 121.65L87.6153 122.091L87.7015 122.532C87.7015 122.675 87.7686 122.829 87.7973 122.972L86.6381 124.151C86.6381 123.997 86.5711 123.844 86.5423 123.691L86.4561 123.231L86.3699 122.771L86.2837 122.311L87.4429 121.2Z" fill="#0098FF"/>
<path d="M132.938 39.8567L132.517 40.0099L132.095 40.1632L131.673 40.3261L131.252 40.4889L131.597 38.8124L132.028 38.64L132.469 38.4676L132.9 38.3047L133.34 38.1418L132.938 39.8567Z" fill="#0098FF"/>
<path d="M88.2476 124.84L88.3626 125.281L88.4776 125.712C88.4776 125.856 88.5542 126.009 88.6021 126.153C88.65 126.296 88.6883 126.44 88.7266 126.584L87.5675 127.925C87.5675 127.772 87.4908 127.618 87.4429 127.465C87.395 127.312 87.3567 127.168 87.3184 127.015L87.2034 126.555L87.0885 126.105L88.2476 124.84Z" fill="#0098FF"/>
<path d="M136.492 38.7552L136.061 38.8797L135.63 38.9947L135.189 39.1288L134.768 39.2533L135.237 37.4906L135.687 37.3565L136.138 37.2128L136.588 37.0883L137.038 36.9541L136.492 38.7552Z" fill="#0098FF"/>
<path d="M89.3112 128.414L89.4549 128.845C89.5124 128.979 89.5603 129.123 89.6082 129.266L89.771 129.688C89.8189 129.831 89.8764 129.966 89.9243 130.109L88.7843 131.613C88.7268 131.46 88.6789 131.316 88.6215 131.173C88.564 131.029 88.5161 130.876 88.4682 130.722C88.4203 130.569 88.3628 130.435 88.3149 130.282C88.267 130.128 88.2095 129.985 88.1616 129.841L89.3112 128.414Z" fill="#0098FF"/>
<path d="M140.133 37.9504L139.682 38.0271L139.232 38.1612L138.791 38.257L138.351 38.3528L138.973 36.5039L139.433 36.3985L139.893 36.3027L140.353 36.2069L140.813 36.1111L140.133 37.9504Z" fill="#0098FF"/>
<path d="M90.6522 131.891C90.7192 132.025 90.7767 132.159 90.8342 132.303L91.0258 132.705C91.0833 132.849 91.1503 132.983 91.2174 133.117C91.2845 133.251 91.3419 133.395 91.409 133.529L90.2881 135.196L90.0965 134.765L89.8954 134.344L89.7133 133.912C89.6463 133.769 89.5888 133.625 89.5217 133.472L90.6522 131.891Z" fill="#0098FF"/>
<path d="M143.83 37.4619H143.38L142.93 37.5098H142.479L142.029 37.5673L142.805 35.6513L143.274 35.5842L143.744 35.5267L144.213 35.4693L144.683 35.4214L143.83 37.4619Z" fill="#0098FF"/>
<path d="M92.2904 135.234L92.5108 135.637C92.5874 135.761 92.6544 135.896 92.7311 136.03L92.961 136.413L93.1909 136.806L92.1084 138.655L91.8785 138.243C91.7923 138.108 91.7156 137.965 91.639 137.831C91.5623 137.697 91.4857 137.553 91.4186 137.409L91.1887 136.997L92.2904 135.234Z" fill="#0098FF"/>
<path d="M147.586 37.318H146.216H145.765L146.723 35.3254H147.202H147.672H148.63L147.586 37.318Z" fill="#0098FF"/>
<path d="M95.2885 139.919L94.2539 141.95C94.1581 141.816 94.0719 141.682 93.9761 141.557L93.7078 141.164L93.4396 140.772L93.1809 140.369L94.2347 138.453L94.4934 138.827L94.752 139.201L95.0203 139.574C95.1065 139.708 95.164 139.804 95.2885 139.919Z" fill="#0098FF"/>
<path d="M151.36 37.5575L150.9 37.5097H150.45H149.99H149.531L150.651 35.4595H151.13H151.609H152.088H152.567L151.36 37.5575Z" fill="#0098FF"/>
<path d="M97.7605 142.908L96.8025 145.111L96.4864 144.747L96.1702 144.383C96.0648 144.259 95.9691 144.134 95.8637 144.019L95.5571 143.646L96.5151 141.519L96.8121 141.873L97.1187 142.218L97.4252 142.563L97.7605 142.908Z" fill="#0098FF"/>
<path d="M155.135 38.1612L154.685 38.0654L154.225 37.9696L153.775 37.8834L153.315 37.7972L154.627 35.6992L155.106 35.7758L155.585 35.862L156.064 35.9578L156.543 36.0536L155.135 38.1612Z" fill="#0098FF"/>
<path d="M99.1397 144.316L99.475 144.632L99.8199 144.949L100.165 145.265L100.519 145.571L99.6379 147.957L99.2739 147.631L98.9194 147.296L98.5649 146.96L98.2201 146.615L99.1397 144.316Z" fill="#0098FF"/>
<path d="M158.88 39.3011L158.392 39.1191L157.941 38.9754L157.491 38.8317L157.041 38.688L158.545 36.5708L159.024 36.7049L159.503 36.8391L159.982 36.9924L160.451 37.1456L158.88 39.3011Z" fill="#0098FF"/>
<path d="M102.072 146.836C102.196 146.932 102.321 147.027 102.455 147.114L102.838 147.401L103.221 147.669L103.614 147.938L102.838 150.505L102.436 150.218L102.033 149.921L101.641 149.624L101.248 149.317L102.072 146.836Z" fill="#0098FF"/>
<path d="M162.54 40.8818L162.109 40.6614L161.668 40.4507L161.228 40.2495L160.777 40.0483L162.502 37.9216L162.971 38.1132L163.441 38.3239L163.91 38.5347L164.379 38.755L162.54 40.8818Z" fill="#0098FF"/>
<path d="M105.348 149.03L105.769 149.269L106.191 149.509L106.622 149.738L107.063 149.959L106.411 152.699L105.961 152.459L105.52 152.21L105.07 151.951L104.639 151.693L105.348 149.03Z" fill="#0098FF"/>
<path d="M166.056 42.9509L165.634 42.6731L165.213 42.3953L164.791 42.1271L164.36 41.8684L166.276 39.7512L166.736 40.0099L167.186 40.2877L167.637 40.5655L168.087 40.8529L166.056 42.9509Z" fill="#0098FF"/>
<path d="M108.969 150.85L109.429 151.041L109.898 151.223L110.368 151.405L110.837 151.578L110.349 154.452L109.86 154.26L109.371 154.059L108.883 153.858L108.404 153.647L108.969 150.85Z" fill="#0098FF"/>
<path d="M169.457 45.6239L169.054 45.2695L168.662 44.9342L168.259 44.5989L167.847 44.2732L170.022 42.2039L170.463 42.5296L170.884 42.8745L171.315 43.2194L171.737 43.5738L169.457 45.6239Z" fill="#0098FF"/>
<path d="M112.926 152.229L113.424 152.363L113.931 152.498L114.439 152.613L114.956 152.727L114.64 155.783L114.104 155.659L113.577 155.515L113.05 155.372L112.523 155.218L112.926 152.229Z" fill="#0098FF"/>
<path d="M172.59 48.8236C172.465 48.6799 172.35 48.5362 172.226 48.4021L171.852 47.9902C171.735 47.8523 171.61 47.7212 171.478 47.5974L171.105 47.2046L173.509 45.2024L173.912 45.6048L174.314 46.0167C174.448 46.1508 174.582 46.2945 174.707 46.4382L175.1 46.8693L172.59 48.8236Z" fill="#0098FF"/>
<path d="M117.198 153.12L117.744 153.187L118.28 153.254L118.826 153.312L119.382 153.36L119.286 156.54L118.702 156.483L118.127 156.416L117.562 156.33L116.997 156.243L117.198 153.12Z" fill="#0098FF"/>
<path d="M175.434 52.5789L175.109 52.0999C174.994 51.937 174.888 51.7742 174.773 51.6209C174.658 51.4676 174.553 51.3047 174.438 51.1515L174.103 50.6916L176.728 48.7756C176.852 48.9385 176.967 49.1014 177.092 49.2546L177.456 49.7432L177.81 50.2318L178.165 50.7395L175.434 52.5789Z" fill="#0098FF"/>
<path d="M121.787 153.484H122.946H123.531H124.115L124.249 156.77H123.636C123.425 156.77 123.224 156.77 123.023 156.77H122.41H121.816L121.787 153.484Z" fill="#0098FF"/>
<path d="M177.925 56.909L177.638 56.3534C177.552 56.1714 177.456 55.9894 177.36 55.8169L177.063 55.2804L176.766 54.744L179.64 53.01C179.745 53.192 179.851 53.3741 179.966 53.5561L180.282 54.1117L180.588 54.6865C180.694 54.8685 180.79 55.0697 180.895 55.2613L177.925 56.909Z" fill="#0098FF"/>
<path d="M126.902 156.569L126.644 153.245L127.247 153.168L127.851 153.091L128.464 152.996L129.077 152.9L129.47 156.253L128.828 156.349L128.186 156.435L127.544 156.502L126.902 156.569Z" fill="#0098FF"/>
<path d="M179.046 59.3615L182.093 57.8191L182.361 58.4322L182.619 59.0645L182.878 59.7064C182.964 59.9171 183.041 60.1375 183.127 60.3482L179.995 61.7948L179.765 61.1721L179.535 60.559L179.295 59.9554L179.046 59.3615Z" fill="#0098FF"/>
<path d="M132.267 155.736L131.721 152.363L132.353 152.21L132.986 152.047L133.618 151.875L134.25 151.693L134.93 155.075L134.26 155.257L133.589 155.429L132.928 155.582L132.267 155.736Z" fill="#0098FF"/>
<path d="M181.575 67.1979C181.527 66.968 181.47 66.7381 181.412 66.5178L181.24 65.8376C181.182 65.6172 181.125 65.3969 181.058 65.1766C180.991 64.9562 180.933 64.7359 180.876 64.5155L184.104 63.2031L184.305 63.8929L184.507 64.5922L184.698 65.3011C184.756 65.5406 184.823 65.7705 184.88 66.01L181.575 67.1979Z" fill="#0098FF"/>
<path d="M137.824 154.174L136.981 150.792L137.623 150.553L138.274 150.304L138.916 150.045L139.567 149.777L140.525 153.139L139.845 153.417L139.155 153.676L138.475 153.935L137.824 154.174Z" fill="#0098FF"/>
<path d="M182.61 73.0704C182.61 72.8309 182.553 72.5818 182.514 72.3423C182.476 72.1028 182.447 71.8537 182.418 71.6142L182.303 70.8861C182.303 70.6466 182.227 70.4071 182.179 70.1772L185.561 69.1426C185.561 69.3917 185.656 69.6407 185.695 69.8994C185.733 70.1581 185.781 70.3976 185.829 70.6562L185.944 71.4226L186.059 72.1986L182.61 73.0704Z" fill="#0098FF"/>
<path d="M143.505 151.846L142.336 148.503L142.997 148.177L143.648 147.842L144.3 147.497L144.951 147.133L146.273 150.428L145.574 150.802L144.884 151.156L144.194 151.511L143.505 151.846Z" fill="#0098FF"/>
<path d="M183.051 79.3547C183.051 79.096 183.051 78.8374 183.051 78.5691V77.8027C183.051 77.5441 183.051 77.2854 183.051 77.0268C183.051 76.7681 183.051 76.519 183.051 76.2604L186.547 75.561L186.605 76.3658C186.605 76.634 186.605 76.9022 186.653 77.18C186.701 77.4579 186.653 77.7261 186.653 77.9943V78.8182L183.051 79.3547Z" fill="#0098FF"/>
<path d="M149.214 148.723L147.729 145.456L148.371 145.035L149.023 144.613L149.664 144.173L150.316 143.732L151.973 146.893L151.283 147.363L150.594 147.823L149.904 148.263L149.214 148.723Z" fill="#0098FF"/>
<path d="M182.83 85.984C182.83 85.7062 182.83 85.438 182.897 85.1697C182.964 84.9015 182.897 84.6237 182.897 84.3554C182.897 84.0872 182.897 83.819 182.897 83.5507C182.897 83.2825 182.897 83.0142 182.897 82.746L186.47 82.4011V83.2537C186.47 83.5316 186.47 83.819 186.47 84.1064C186.47 84.3938 186.47 84.6811 186.47 84.9685C186.47 85.2559 186.47 85.5433 186.413 85.8307L182.83 85.984Z" fill="#0098FF"/>
<path d="M154.876 144.814L153.046 141.73L153.679 141.222L154.311 140.705L154.943 140.187L155.566 139.651L157.559 142.64L156.898 143.195L156.227 143.751L155.547 144.288L154.876 144.814Z" fill="#0098FF"/>
<path d="M181.94 92.8528L182.083 92.0098C182.083 91.732 182.179 91.4542 182.217 91.1668C182.256 90.8794 182.304 90.6112 182.342 90.3333L182.457 89.5095L186.049 89.5573L185.935 90.4387C185.935 90.7357 185.858 91.0231 185.81 91.3201C185.762 91.617 185.724 91.914 185.676 92.211C185.628 92.508 185.58 92.805 185.523 93.1019L181.94 92.8528Z" fill="#0098FF"/>
<path d="M160.365 140.13L158.2 137.256L158.804 136.672L159.407 136.078L160.001 135.474L160.595 134.861L162.923 137.601L162.291 138.252L161.649 138.884L161.007 139.517L160.365 140.13Z" fill="#0098FF"/>
<path d="M180.349 99.8366L180.579 98.984C180.656 98.7062 180.723 98.4188 180.799 98.141C180.876 97.8632 180.943 97.5758 181.01 97.2884C181.077 97.001 181.144 96.7232 181.202 96.4453L184.766 96.9148L184.564 97.8153C184.497 98.1123 184.421 98.4092 184.344 98.7062C184.267 99.0032 184.2 99.3097 184.114 99.6067C184.028 99.9037 183.961 100.21 183.875 100.507L180.349 99.8366Z" fill="#0098FF"/>
<path d="M165.558 134.736L163.077 132.14L163.642 131.479C163.824 131.259 164.015 131.038 164.197 130.809C164.38 130.579 164.571 130.358 164.753 130.138L165.309 129.448L167.943 131.891L167.349 132.619L166.765 133.338L166.161 134.037L165.558 134.736Z" fill="#0098FF"/>
<path d="M178.079 106.811C178.184 106.533 178.289 106.246 178.385 105.968C178.481 105.69 178.586 105.412 178.692 105.125L178.979 104.282C179.075 104.004 179.171 103.726 179.257 103.448L182.734 104.339L182.447 105.23C182.342 105.527 182.246 105.834 182.14 106.131L181.824 107.022L181.489 107.913L178.079 106.811Z" fill="#0098FF"/>
<path d="M170.357 128.711L167.579 126.431L168.096 125.712C168.269 125.473 168.441 125.224 168.604 124.974C168.767 124.725 168.939 124.486 169.112 124.237L169.6 123.49L172.474 125.597L171.947 126.383C171.775 126.651 171.593 126.91 171.411 127.168L170.874 127.944L170.357 128.711Z" fill="#0098FF"/>
<path d="M175.157 113.651L175.54 112.837C175.664 112.559 175.799 112.291 175.923 112.013L176.287 111.189C176.412 110.921 176.527 110.643 176.651 110.365L179.985 111.687C179.86 111.974 179.736 112.271 179.602 112.559C179.468 112.846 179.343 113.143 179.219 113.431L178.816 114.302C178.682 114.59 178.538 114.877 178.404 115.174L175.157 113.651Z" fill="#0098FF"/>
<path d="M174.678 122.148L171.641 120.232C171.794 119.974 171.947 119.725 172.091 119.456C172.235 119.188 172.398 118.939 172.541 118.68L172.982 117.885L173.413 117.09L176.565 118.815L176.105 119.658L175.636 120.548C175.482 120.826 175.32 121.095 175.157 121.372C174.994 121.65 174.831 121.88 174.678 122.148Z" fill="#0098FF"/>
</g>
<g opacity="0.3">
<path d="M48.0987 52.1191C47.7825 52.7226 47.476 53.3261 47.1407 53.9393C46.8054 54.5524 46.5371 55.1463 46.2402 55.7594C45.9432 56.3725 45.6558 56.9665 45.3684 57.5796C45.081 58.1927 44.7936 58.7963 44.5158 59.3998L39.7258 57.6371L40.6838 55.6732C40.9904 55.0218 41.3065 54.3703 41.6418 53.7572C41.9771 53.1441 42.2837 52.4544 42.5998 51.8412C42.9159 51.2281 43.2512 50.5384 43.5578 49.9253C43.7398 49.5516 43.9314 49.1876 44.123 48.814L44.6978 47.7123L45.2726 46.6202L45.857 45.5281L50.2158 48.1434L49.6794 49.1589L49.1429 50.1743C48.9609 50.5192 48.7789 50.8545 48.6064 51.1994C48.434 51.5443 48.2711 51.7742 48.0987 52.1191Z" fill="#0098FF"/>
<path d="M54.68 30.4971L58.4449 34.195C57.8701 35.0763 57.3048 35.9673 56.7491 36.8582C56.1935 37.7491 55.638 38.6497 55.0919 39.5598C54.5459 40.4698 53.9997 41.3799 53.4632 42.2996C52.9267 43.2193 52.3999 44.1485 51.8731 45.0778L47.6292 42.2038C48.1944 41.1979 48.7692 40.192 49.344 39.2053C49.9188 38.2186 50.4935 37.2318 51.0875 36.2547C51.6814 35.2775 52.2658 34.3387 52.8694 33.3328C53.4729 32.3269 54.0764 31.4551 54.68 30.4971Z" fill="#0098FF"/>
<path d="M43.1554 62.494C42.7243 63.452 42.3028 64.41 41.8909 65.435C41.4789 66.4601 41.067 67.3989 40.6742 68.3761C40.2814 69.3532 39.8886 70.3399 39.5054 71.3267C39.1223 72.3134 38.7582 73.3002 38.4038 74.2869L33.0869 73.6546C33.4893 72.6008 33.8916 71.5374 34.3036 70.4741C34.7155 69.4107 35.137 68.3569 35.5681 67.2935C35.9992 66.2302 36.4303 65.1764 36.8806 64.1226C37.3308 63.0688 37.7907 62.015 38.2601 60.9612L43.1554 62.494Z" fill="#0098FF"/>
<path d="M64.7102 16.1943L67.7853 20.9843C67.1467 21.8209 66.508 22.664 65.8693 23.5134C65.2371 24.366 64.6048 25.2186 63.9534 26.0808C63.3019 26.943 62.7175 27.8148 62.1044 28.6866L60.2938 31.3306L56.6726 27.4124C57.3145 26.4544 57.9659 25.4964 58.5886 24.5385C59.2113 23.5805 59.9011 22.6225 60.5716 21.6645C61.2422 20.7065 61.9128 19.7964 62.593 18.8767C63.2732 17.957 64.0108 17.0853 64.7102 16.1943Z" fill="#0098FF"/>
<path d="M37.2541 77.4867C36.9092 78.4447 36.5644 79.5081 36.2291 80.5236C35.8938 81.539 35.5681 82.5545 35.2711 83.57C34.9741 84.5854 34.6484 85.6009 34.3131 86.626C33.9778 87.651 33.7287 88.6665 33.4509 89.682L27.655 90.2663C27.9712 89.1646 28.2873 88.063 28.613 86.9613C28.9387 85.8596 29.274 84.7675 29.6189 83.6658C29.9638 82.5641 30.3278 81.472 30.6919 80.3799C31.0559 79.2878 31.4295 78.1956 31.8127 77.1035L37.2541 77.4867Z" fill="#0098FF"/>
<path d="M78.2848 8.55912C77.5567 9.34468 76.8382 10.1398 76.1293 10.9445C75.4204 11.7396 74.7115 12.5443 74.0122 13.3586C73.3128 14.1729 72.6231 14.9872 71.9429 15.8111C71.2627 16.635 70.573 17.4684 69.9024 18.3019L66.9805 13.2533C67.699 12.2953 68.427 11.4426 69.1647 10.5421C69.9023 9.64165 70.64 8.75072 71.3872 7.86936C72.1345 6.98801 72.8913 6.10666 73.6577 5.23488C74.4241 4.36311 75.2001 3.49134 75.976 2.62915L78.2848 8.55912Z" fill="#0098FF"/>
<path d="M32.5983 92.9773C32.33 94.0215 32.0714 95.0657 31.8319 96.11C31.5924 97.1542 31.3433 98.1984 31.1134 99.2426C30.8835 100.287 30.6631 101.341 30.4524 102.385C30.2416 103.429 30.0404 104.492 29.8488 105.546L23.6123 107.462C23.8358 106.325 24.0658 105.185 24.3021 104.042C24.5416 102.912 24.7906 101.772 25.0493 100.641C25.308 99.5108 25.5762 98.3804 25.854 97.25C26.1318 96.1195 26.4097 94.9987 26.7066 93.8682L32.5983 92.9773Z" fill="#0098FF"/>
<path d="M89.934 -3.03271C89.1293 -2.30463 88.3341 -1.57655 87.5486 -0.829316C86.763 -0.0820816 85.9775 0.655569 85.2015 1.41238C84.4255 2.16919 83.6592 2.92601 82.9023 3.6924C82.1455 4.45879 81.3887 5.2252 80.6415 6.01075L78.5051 -0.139567C79.3098 -0.992181 80.1241 -1.8448 80.9384 -2.68783C81.7527 -3.53086 82.5766 -4.36432 83.4101 -5.18819C84.2435 -6.01206 85.0865 -6.84552 85.9392 -7.65981C86.7918 -8.47411 87.6444 -9.2884 88.5066 -10.0835L89.934 -3.03271Z" fill="#0098FF"/>
<path d="M29.2549 108.938C29.0825 110.011 28.9196 111.074 28.7663 112.137C28.6131 113.201 28.4694 114.283 28.3257 115.356C28.182 116.429 28.067 117.512 27.952 118.585C27.8371 119.658 27.7317 120.75 27.6359 121.832L21.0066 125.128C21.1216 123.949 21.2557 122.771 21.3898 121.593C21.5239 120.414 21.6868 119.255 21.8496 118.077C22.0125 116.899 22.1849 115.749 22.367 114.59C22.549 113.431 22.7405 112.271 22.9417 111.112L29.2549 108.938Z" fill="#0098FF"/>
<path d="M27.3578 125.338C27.2908 126.421 27.2237 127.513 27.1662 128.605C27.1087 129.697 27.0704 130.789 27.0417 131.882C27.013 132.974 26.9938 134.075 26.9842 135.177C26.9746 136.279 26.9842 137.38 26.9842 138.482L20.01 143.349C20.01 142.142 20.01 140.935 20.0675 139.718C20.125 138.501 20.1441 137.313 20.192 136.116C20.2399 134.918 20.3166 133.721 20.3932 132.523C20.4699 131.326 20.5561 130.138 20.6519 128.95L27.3578 125.338Z" fill="#0098FF"/>
<path d="M27.0612 141.988C27.0612 143.09 27.157 144.192 27.2145 145.293C27.272 146.395 27.3486 147.506 27.4348 148.618C27.521 149.729 27.6168 150.831 27.7318 151.942C27.8467 153.053 27.9617 154.164 28.1054 155.276L20.8726 161.934C20.748 160.698 20.6331 159.462 20.5373 158.226C20.4415 156.991 20.3648 155.774 20.2882 154.538C20.2115 153.302 20.1637 152.095 20.1253 150.869C20.087 149.643 20.0487 148.436 20.0295 147.209L27.0612 141.988Z" fill="#0098FF"/>
<path d="M28.5839 158.868C28.7468 159.979 28.9288 161.081 29.1204 162.183C29.312 163.285 29.5227 164.396 29.7431 165.498C29.9634 166.599 30.2029 167.72 30.452 168.822C30.7011 169.923 30.9693 171.035 31.2471 172.136L23.8897 180.835C23.6119 179.59 23.3437 178.344 23.1042 177.089C22.8647 175.834 22.6252 174.608 22.4144 173.363C22.2037 172.117 22.0025 170.881 21.8205 169.646C21.6385 168.41 21.466 167.174 21.3127 165.938L28.5839 158.868Z" fill="#0098FF"/>
<path d="M32.196 175.624C32.5121 176.716 32.8379 177.798 33.154 178.881C33.4701 179.963 33.8629 181.055 34.2365 182.128C34.6101 183.201 35.0029 184.303 35.4149 185.376C35.8268 186.449 36.2579 187.541 36.6986 188.614L29.4178 199.631C28.958 198.395 28.5173 197.15 28.0958 195.904C27.6743 194.659 27.2719 193.442 26.8887 192.197C26.5055 190.951 26.1415 189.725 25.7966 188.489C25.4517 187.254 25.126 186.027 24.8386 184.792L32.196 175.624Z" fill="#0098FF"/>
<path d="M44.8511 204.421V204.469V204.517V204.565L38.0398 218.264V218.206V218.149V218.101V218.043C37.3692 216.846 36.7178 215.648 36.1238 214.441C35.5299 213.234 34.8976 212.037 34.3228 210.83C33.748 209.623 33.1924 208.425 32.6559 207.218C32.1194 206.011 31.6117 204.804 31.1135 203.597L38.3559 192.101C38.8349 193.155 39.3139 194.189 39.8312 195.224C40.3486 196.259 40.885 197.313 41.4311 198.338C41.9772 199.363 42.5615 200.407 43.1555 201.432C43.7494 202.457 44.2093 203.405 44.8511 204.421Z" fill="#0098FF"/>
<path d="M47.0545 207.793C47.7378 208.796 48.4372 209.782 49.1525 210.753C49.871 211.711 50.6086 212.669 51.3559 213.627C52.1031 214.585 52.8887 215.543 53.6742 216.424C54.4598 217.306 55.2837 218.245 56.1075 219.126L49.9476 235.575C49.0535 234.502 48.1785 233.406 47.3227 232.289C46.4669 231.171 45.6366 230.05 44.8319 228.926C44.0272 227.796 43.2417 226.649 42.4753 225.487C41.7185 224.328 40.9712 223.159 40.2432 221.971L47.0545 207.793Z" fill="#0098FF"/>
<path d="M58.8569 221.962C59.7574 222.843 60.6675 223.696 61.5967 224.529C62.526 225.363 63.5127 226.196 64.4707 227.001C65.4287 227.805 66.4442 228.591 67.4501 229.348C68.456 230.105 69.5098 230.861 70.5635 231.58L65.7736 251.056C64.6144 250.098 63.4648 249.197 62.344 248.182C61.2231 247.166 60.131 246.266 59.058 245.231C57.9851 244.197 56.9505 243.21 55.9254 242.166C54.9004 241.121 53.9232 240.068 52.946 238.985L58.8569 221.962Z" fill="#0098FF"/>
<path d="M74.0889 233.841C75.2129 234.531 76.353 235.192 77.5089 235.824C78.6777 236.466 79.8656 237.079 81.0631 237.663C82.2606 238.248 83.506 238.822 84.7514 239.359C85.9968 239.895 87.2805 240.413 88.5833 240.892L85.9489 263.414C84.4927 262.734 83.0749 262.034 81.6379 261.297C80.2009 260.559 78.8597 259.802 77.4994 259.007C76.139 258.212 74.8266 257.407 73.5141 256.564C72.2016 255.721 70.9563 254.859 69.6821 253.968L74.0889 233.841Z" fill="#0098FF"/>
<path d="M92.7509 242.338C94.1113 242.769 95.4908 243.162 96.8799 243.526C98.269 243.89 99.6964 244.216 101.124 244.484C102.551 244.752 103.998 245.049 105.502 245.279C107.006 245.509 108.491 245.701 110.004 245.864L110.493 271.145C108.749 270.832 107.019 270.471 105.301 270.062C103.605 269.66 101.928 269.229 100.271 268.75C98.6138 268.271 97.014 267.792 95.4142 267.217C93.8143 266.642 92.2623 266.087 90.72 265.474L92.7509 242.338Z" fill="#0098FF"/>
<path d="M252.505 3.88411C251.653 2.44712 250.771 1.01013 249.861 -0.33106C248.951 -1.67225 248.032 -3.01343 247.074 -4.3163C246.116 -5.61917 245.158 -6.84541 244.2 -8.07164C243.242 -9.29787 242.207 -10.4475 241.172 -11.597L261.798 -26.0244C263.101 -24.779 264.375 -23.5049 265.63 -22.1924C266.885 -20.88 268.13 -19.4813 269.347 -18.0731C270.564 -16.6648 271.761 -15.1991 272.93 -13.6567C274.099 -12.1144 275.258 -10.572 276.369 -8.96257L252.505 3.88411Z" fill="#0098FF"/>
<path d="M114.957 246.275C116.537 246.352 118.118 246.4 119.747 246.4C121.375 246.4 122.994 246.4 124.633 246.285C126.271 246.17 127.938 246.084 129.614 245.921C131.291 245.758 132.996 245.547 134.691 245.298L139.232 272.544C137.221 272.697 135.225 272.799 133.245 272.85C131.265 272.901 129.317 272.901 127.401 272.85C125.485 272.802 123.569 272.716 121.701 272.572C119.833 272.429 117.994 272.247 116.164 272.017L114.957 246.275Z" fill="#0098FF"/>
<path d="M263.388 28.7632C262.833 26.943 262.242 25.1548 261.616 23.3984C260.99 21.6421 260.332 19.9241 259.643 18.2444C258.959 16.5775 258.244 14.9394 257.497 13.3299C256.749 11.7397 255.973 10.1686 255.169 8.64536L279.866 -3.65527C280.926 -1.93089 281.957 -0.168178 282.96 1.63285C283.918 3.46262 284.924 5.32112 285.834 7.22753C286.744 9.13393 287.664 11.1074 288.516 13.1096C289.369 15.1118 290.203 17.1811 290.978 19.2791L263.388 28.7632Z" fill="#0098FF"/>
<path d="M140.19 244.34C141.933 243.995 143.687 243.603 145.449 243.162C147.212 242.721 148.987 242.236 150.776 241.706C152.57 241.169 154.368 240.585 156.169 239.953C157.98 239.32 159.8 238.631 161.611 237.903L171.363 265.847C169.179 266.582 166.998 267.262 164.82 267.888C162.664 268.501 160.519 269.066 158.373 269.564C156.227 270.062 154.129 270.522 152.021 270.886C149.914 271.25 147.854 271.595 145.785 271.844L140.19 244.34Z" fill="#0098FF"/>
<path d="M268.878 58.9686C268.724 56.8355 268.53 54.7215 268.293 52.6267C268.054 50.5383 267.766 48.4882 267.45 46.4572C267.134 44.4263 266.76 42.4433 266.358 40.4794C265.956 38.5155 265.525 36.6474 265.046 34.7314L293.345 26.1765C294.034 28.3799 294.676 30.612 295.261 32.8825C295.845 35.1529 296.401 37.5 296.899 39.8567C297.397 42.2133 297.857 44.6466 298.25 47.0991C298.642 49.5516 298.997 52.0615 299.294 54.581L268.878 58.9686Z" fill="#0098FF"/>
<path d="M167.455 235.383C169.285 234.54 171.105 233.659 172.925 232.72C174.745 231.781 176.594 230.804 178.414 229.74C180.234 228.677 182.074 227.604 183.894 226.455C185.714 225.305 187.554 224.098 189.364 222.852L204.999 249.628C202.789 251.027 200.553 252.362 198.293 253.633C196.032 254.904 193.796 256.104 191.587 257.235C189.371 258.365 187.154 259.435 184.938 260.444C182.735 261.402 180.522 262.36 178.318 263.251L167.455 235.383Z" fill="#0098FF"/>
<path d="M267.604 93.1403C267.939 90.7932 268.207 88.4653 268.437 86.1469C268.667 83.8286 268.849 81.539 268.973 79.259C269.098 76.9789 269.194 74.7372 269.223 72.5051C269.251 70.273 269.223 68.0696 269.223 65.8854L300.051 62.7527C300.223 65.3521 300.338 67.9706 300.396 70.6083C300.453 73.2715 300.396 75.9539 300.396 78.665C300.396 81.3761 300.204 84.1351 300.022 86.8942C299.84 89.6532 299.581 92.4697 299.265 95.2862L267.604 93.1403Z" fill="#0098FF"/>
<path d="M212.039 244.915L195.121 218.666C196.903 217.312 198.669 215.914 200.419 214.47C202.182 213.014 203.925 211.52 205.65 209.968C207.374 208.416 209.108 206.806 210.804 205.178C212.499 203.549 214.185 201.815 215.852 200.072L237.465 223.456C235.427 225.506 233.361 227.492 231.266 229.415C229.172 231.337 227.064 233.196 224.944 234.99C222.823 236.772 220.684 238.497 218.525 240.164C216.389 241.792 214.224 243.392 212.039 244.915Z" fill="#0098FF"/>
<path d="M258.885 128.998C259.719 126.622 260.495 124.208 261.223 121.861C261.951 119.514 262.631 117.071 263.254 114.743C263.877 112.415 264.461 110.02 264.988 107.663C265.515 105.307 265.946 102.979 266.415 100.641L298.029 104.301C297.588 107.111 297.084 109.931 296.515 112.76C295.941 115.634 295.308 118.441 294.599 121.286C293.891 124.131 293.134 127.034 292.3 129.908C291.467 132.782 290.566 135.656 289.599 138.53L258.885 128.998Z" fill="#0098FF"/>
<path d="M243.845 216.741L221.055 194.314C222.635 192.494 224.187 190.645 225.72 188.748C227.253 186.851 228.767 184.916 230.242 182.923C231.717 180.931 233.173 178.909 234.591 176.85C236.009 174.79 237.408 172.673 238.768 170.537L265.515 188.441C263.867 190.996 262.172 193.509 260.428 195.981C258.685 198.452 256.925 200.879 255.15 203.262C253.336 205.618 251.49 207.921 249.612 210.169C247.735 212.417 245.812 214.607 243.845 216.741Z" fill="#0098FF"/>
<path d="M248.07 154.251C248.824 152.782 249.555 151.31 250.264 149.834C250.963 148.369 251.653 146.884 252.323 145.408C252.994 143.933 253.645 142.439 254.239 140.954C254.833 139.469 255.485 137.984 256.069 136.49L286.303 147.526C285.614 149.327 284.895 151.121 284.148 152.91C283.401 154.711 282.625 156.492 281.83 158.274C281.034 160.056 280.211 161.838 279.368 163.61C278.525 165.383 277.643 167.145 276.743 168.898C276.254 169.856 275.785 170.814 275.248 171.772C274.712 172.73 274.233 173.688 273.715 174.646C273.198 175.604 272.681 176.562 272.154 177.463C271.627 178.363 271.09 179.331 270.544 180.251L242.935 163.658C243.385 162.892 243.826 162.116 244.257 161.34C244.688 160.564 245.129 159.778 245.56 158.983C245.991 158.188 246.413 157.412 246.834 156.617C247.256 155.822 247.668 155.036 248.07 154.251Z" fill="#0098FF"/>
</g>
<g opacity="0.3">
<path d="M82.1549 69.5163C84.6269 64.6487 87.6866 60.1026 91.2654 55.9799C94.5711 52.1494 98.3839 48.7877 102.598 45.988C106.488 43.3701 110.807 41.4569 115.359 40.3358C119.709 39.2522 124.263 39.2818 128.598 40.4221C132.95 41.6218 136.85 44.0816 139.807 47.4921C143.068 51.3572 145.335 55.9617 146.407 60.904C147.731 66.8631 147.926 73.0174 146.982 79.0483C144.785 93.2421 138.089 106.355 127.88 116.458C123.548 120.758 118.445 124.206 112.839 126.622C108.213 128.661 103.158 129.536 98.115 129.17C93.6179 128.782 89.3371 127.069 85.8144 124.246C82.3512 121.402 79.6595 117.732 77.9876 113.574C76.2356 109.225 75.2628 104.6 75.1136 99.9134C74.9168 94.8577 75.4033 89.7985 76.5602 84.8729C77.7882 79.544 79.6672 74.3863 82.1549 69.5163ZM139.634 98.8788C142.837 92.6857 145.002 86.0093 146.043 79.1154C146.97 73.2195 146.788 67.2024 145.507 61.3734C144.468 56.5383 142.265 52.0298 139.088 48.2393C136.211 44.8848 132.404 42.458 128.148 41.2651C123.907 40.1312 119.448 40.0884 115.186 41.1406C110.718 42.23 106.476 44.0979 102.656 46.6586C98.5247 49.4066 94.7834 52.6999 91.5336 56.4493C88.023 60.5088 85.0244 64.9842 82.6051 69.775C80.1503 74.5441 78.2968 79.5994 77.0871 84.825C75.9514 89.6562 75.4776 94.6193 75.6788 99.5781C75.8386 104.183 76.8115 108.724 78.5528 112.99C80.1932 117.052 82.8286 120.636 86.2167 123.413C89.6775 126.163 93.8734 127.829 98.2779 128.203C103.2 128.545 108.131 127.687 112.648 125.702C118.122 123.322 123.103 119.94 127.334 115.73C132.306 110.845 136.445 105.178 139.587 98.9554" fill="#0098FF"/>
</g>
<g opacity="0.3">
<path d="M131.233 94.5774C130.658 95.6982 130.121 96.8191 129.614 97.9399C129.106 99.0608 128.656 100.191 128.186 101.322C127.717 102.452 127.324 103.573 126.941 104.703C126.558 105.834 126.203 106.964 125.877 108.095H124.919C125.255 106.935 125.619 105.767 126.012 104.607C126.404 103.448 126.835 102.28 127.295 101.12C127.755 99.9613 128.253 98.8021 128.771 97.6429C129.288 96.4838 129.844 95.3342 130.428 94.1846L131.185 94.5774H131.233Z" fill="#0098FF"/>
<path d="M140.88 78.6843L141.359 79.5177C140.573 80.4087 139.816 81.3283 139.069 82.2767C138.322 83.2252 137.603 84.1927 136.894 85.1507C136.185 86.1087 135.505 87.1721 134.835 88.2163C134.164 89.2605 133.532 90.343 132.919 91.4352L132.21 90.9657C132.852 89.8353 133.513 88.7336 134.202 87.6511C134.892 86.5686 135.591 85.5243 136.31 84.4993C137.028 83.4742 137.785 82.4683 138.552 81.4912C139.318 80.514 140.075 79.6039 140.88 78.6843Z" fill="#0098FF"/>
<path d="M125.034 111.313C124.747 112.511 124.508 113.699 124.287 114.877C124.067 116.055 123.894 117.253 123.741 118.431C123.588 119.61 123.482 120.798 123.396 121.966C123.31 123.135 123.272 124.313 123.262 125.473L122.228 125.98C122.228 124.792 122.295 123.585 122.381 122.369C122.467 121.152 122.582 119.955 122.745 118.738C122.908 117.521 123.09 116.305 123.31 115.078C123.53 113.852 123.789 112.635 124.086 111.409L125.034 111.313Z" fill="#0098FF"/>
<path d="M154.445 68.0217C153.487 68.6444 152.529 69.3054 151.571 70.0048C150.613 70.7041 149.722 71.4226 148.812 72.1794C147.902 72.9362 147.021 73.7218 146.139 74.5361C145.258 75.3504 144.415 76.1934 143.581 77.0652L143.16 76.1647C144.022 75.2642 144.903 74.3924 145.804 73.5494C146.695 72.7063 147.615 71.892 148.544 71.116C149.473 70.3401 150.46 69.5833 151.418 68.8648C152.376 68.1463 153.334 67.4661 154.359 66.8147L154.445 68.0217Z" fill="#0098FF"/>
<path d="M123.32 128.653C123.368 129.803 123.463 130.943 123.588 132.073C123.712 133.204 123.875 134.324 124.077 135.426C124.278 136.528 124.527 137.62 124.805 138.693C125.082 139.766 125.408 140.829 125.763 141.864L124.747 142.937C124.374 141.864 124.048 140.762 123.789 139.641C123.53 138.52 123.262 137.409 123.051 136.26C122.841 135.11 122.687 133.97 122.563 132.792C122.438 131.613 122.343 130.454 122.295 129.266L123.32 128.653Z" fill="#0098FF"/>
<path d="M169.888 60.1377L169.514 61.6321C168.451 61.8525 167.397 62.1207 166.334 62.4368C165.27 62.753 164.245 63.1074 163.211 63.5098C162.176 63.9121 161.161 64.3528 160.155 64.8318C159.149 65.3108 158.153 65.7898 157.156 66.3933V65.1288C158.172 64.5444 159.197 63.9984 160.241 63.5002C161.285 63.002 162.339 62.5422 163.393 62.1207C164.447 61.6992 165.539 61.316 166.621 60.9903C167.704 60.6645 168.758 60.3676 169.888 60.1377Z" fill="#0098FF"/>
<path d="M172.848 59.6298C173.652 59.5244 174.467 59.4574 175.271 59.4095C176.076 59.3616 176.9 59.352 177.705 59.4095C178.509 59.467 179.343 59.4765 180.157 59.5628C180.972 59.649 181.786 59.764 182.6 59.9172L183.395 60.0801L184.181 60.2621L184.966 60.4633L185.733 60.6932L184.775 62.293L184.028 62.0631L183.28 61.862L182.523 61.6799L181.757 61.5171C180.972 61.3638 180.186 61.2393 179.4 61.153C178.615 61.0668 177.829 61.0093 177.034 60.9806C176.239 60.9519 175.473 60.9806 174.687 60.9806C173.902 60.9806 173.126 61.086 172.35 61.1818L172.848 59.6298Z" fill="#0098FF"/>
<path d="M134.059 154.931L134.701 155.515L135.353 156.071L136.023 156.598L136.713 157.106L135.975 158.811L135.266 158.274L134.577 157.719L133.906 157.134C133.676 156.943 133.465 156.741 133.245 156.531C132.442 155.774 131.684 154.971 130.975 154.126C130.265 153.292 129.603 152.419 128.991 151.511C128.388 150.62 127.823 149.691 127.296 148.733C126.769 147.775 126.338 146.817 125.868 145.801L126.826 144.632C127.248 145.59 127.717 146.548 128.225 147.506C128.733 148.464 129.288 149.317 129.882 150.179C130.474 151.047 131.114 151.882 131.798 152.68C132.508 153.473 133.263 154.224 134.059 154.931Z" fill="#0098FF"/>
<path d="M138.475 160.439L139.136 158.657C140.079 159.19 141.055 159.661 142.058 160.066C144.105 160.899 146.249 161.472 148.438 161.771C149.579 161.923 150.727 162.013 151.878 162.039L151.648 164.07C149.296 164.013 146.961 163.669 144.693 163.045C143.601 162.742 142.529 162.371 141.483 161.934C140.45 161.499 139.446 161 138.475 160.439Z" fill="#0098FF"/>
<path d="M204.922 89.4713C204.711 87.996 204.443 86.5973 204.107 85.1795C203.772 83.7617 203.389 82.4779 202.938 81.1942C202.507 79.9421 202.008 78.7141 201.444 77.5155C200.906 76.3764 200.308 75.2668 199.653 74.1913L201.252 72.8884C201.956 73.9977 202.595 75.1459 203.168 76.3276C203.764 77.5756 204.292 78.8548 204.749 80.1596C205.231 81.5172 205.644 82.8985 205.985 84.2981C206.339 85.7351 206.636 87.1721 206.857 88.7432L204.922 89.4713Z" fill="#0098FF"/>
<path d="M155.192 161.924C156.456 161.811 157.713 161.629 158.957 161.378C160.251 161.128 161.53 160.808 162.789 160.42C164.119 160.007 165.426 159.528 166.707 158.983C168.029 158.427 169.348 157.789 170.664 157.067L171.181 159.05C169.814 159.778 168.441 160.417 167.062 160.966C165.682 161.515 164.322 162.004 162.981 162.432C161.661 162.822 160.321 163.142 158.967 163.39C157.675 163.639 156.37 163.815 155.058 163.917L155.192 161.924Z" fill="#0098FF"/>
<path d="M203.216 113.45C203.676 111.713 204.063 109.991 204.376 108.286C204.688 106.581 204.934 104.895 205.113 103.228C205.286 101.571 205.391 99.9326 205.429 98.3232C205.468 96.7138 205.429 95.1522 205.343 93.6194L207.259 93.0159C207.364 94.6158 207.403 96.2443 207.364 97.9113C207.326 99.5782 207.23 101.293 207.058 103.017C206.885 104.742 206.627 106.514 206.311 108.286C205.995 110.059 205.583 111.869 205.104 113.68L203.216 113.45Z" fill="#0098FF"/>
<path d="M174.965 156.847L174.294 154.931C175.597 154.097 176.881 153.178 178.126 152.201C179.372 151.223 180.656 150.15 181.901 149.03C183.146 147.909 184.363 146.692 185.551 145.428C186.739 144.163 187.908 142.822 189.028 141.414L190.36 142.822C189.178 144.291 187.965 145.683 186.72 146.999C185.474 148.311 184.2 149.566 182.888 150.735C181.575 151.904 180.282 153.005 178.95 154.03C177.619 155.055 176.325 155.994 174.965 156.847Z" fill="#0098FF"/>
<path d="M197.459 128.394C197.89 127.551 198.311 126.699 198.704 125.846C199.097 124.994 199.48 124.141 199.844 123.279C200.208 122.417 200.553 121.564 200.879 120.711C201.205 119.859 201.511 118.987 201.837 118.134L203.753 118.556C203.456 119.456 203.13 120.347 202.795 121.248C202.46 122.148 202.095 123.03 201.722 123.93C201.348 124.831 200.946 125.712 200.534 126.603C200.122 127.494 199.691 128.375 199.241 129.257C198.79 130.138 198.369 130.924 197.919 131.738C197.468 132.552 196.961 133.357 196.52 134.152C196.079 134.947 195.562 135.723 195.064 136.48C194.566 137.237 194.058 137.994 193.541 138.731L192.084 137.495C192.583 136.786 193.042 136.058 193.541 135.33C194.039 134.602 194.499 133.845 194.939 133.089C195.38 132.332 195.84 131.565 196.28 130.78C196.721 129.994 197.047 129.17 197.459 128.394Z" fill="#0098FF"/>
<path d="M197.766 71.4706C197.069 70.5597 196.317 69.6927 195.514 68.8744C194.735 68.083 193.909 67.3376 193.043 66.6423C192.187 65.9658 191.292 65.3419 190.36 64.7742C189.435 64.2156 188.475 63.7165 187.486 63.2798L188.531 61.6895C189.559 62.1351 190.557 62.6471 191.519 63.2223C192.495 63.7998 193.433 64.4398 194.326 65.1383C195.236 65.8468 196.099 66.6115 196.913 67.4279C197.756 68.2658 198.546 69.1553 199.279 70.0911L197.766 71.4706Z" fill="#0098FF"/>
</g>
<g opacity="0.3">
<path d="M64.1162 59.5339L66.2333 60.5973C66.2754 60.6286 66.3112 60.6676 66.3387 60.7123C66.3496 60.7757 66.3496 60.8405 66.3387 60.9039C66.347 60.9803 66.347 61.0574 66.3387 61.1338C66.3153 61.2229 66.2832 61.3095 66.2429 61.3924C66.2024 61.4727 66.1508 61.5469 66.0896 61.6128C66.0396 61.6744 65.9816 61.7292 65.9172 61.7756C65.8656 61.8128 65.8069 61.8389 65.7448 61.8523C65.6957 61.8725 65.6406 61.8725 65.5915 61.8523L63.4839 60.7698L64.1162 59.5339Z" fill="#0098FF"/>
<path d="M61.3859 58.9017C61.532 58.607 61.712 58.3305 61.9224 58.0778C62.1028 57.856 62.3123 57.6594 62.5451 57.4934C62.7288 57.3506 62.9412 57.2492 63.1678 57.1964C63.3573 57.1512 63.5565 57.1714 63.733 57.2539L67.0956 58.9112C67.2702 59.0066 67.4108 59.1539 67.4979 59.3328C67.5892 59.5548 67.6379 59.792 67.6416 60.0321C67.6505 60.3257 67.6182 60.6192 67.5458 60.9039C67.4583 61.2351 67.3363 61.5561 67.1818 61.8619C67.0307 62.1691 66.8407 62.4557 66.6166 62.7145C66.4289 62.9453 66.2096 63.1485 65.9651 63.318C65.7688 63.4553 65.5475 63.5529 65.3137 63.6054C65.1157 63.6419 64.9112 63.6151 64.7293 63.5288L61.4242 61.7756C61.2555 61.6815 61.1238 61.5329 61.0506 61.3541C60.963 61.138 60.9175 60.9071 60.9165 60.6739C60.9202 60.3861 60.9588 60.0998 61.0315 59.8213C61.1132 59.502 61.2322 59.1933 61.3859 58.9017ZM66.7507 59.5818L63.3977 57.9149C63.267 57.8718 63.126 57.8718 62.9954 57.9149C62.8363 57.9513 62.6863 58.0197 62.5547 58.1161C62.3893 58.236 62.2411 58.3778 62.114 58.5376C61.9635 58.7165 61.8349 58.9127 61.7308 59.122C61.6245 59.3295 61.541 59.5479 61.4817 59.7734C61.4242 59.9692 61.3983 60.173 61.4051 60.377C61.4015 60.5408 61.4309 60.7037 61.4913 60.856C61.5462 60.9814 61.6403 61.0856 61.7595 61.1529L65.0742 62.8869C65.2006 62.9535 65.3463 62.9738 65.4861 62.9444C65.6547 62.9051 65.8142 62.8335 65.9556 62.7336C66.124 62.6141 66.2754 62.4723 66.4058 62.3121C66.5659 62.1295 66.7012 61.9266 66.8082 61.7086C66.9191 61.4954 67.0059 61.2705 67.0668 61.038C67.116 60.8342 67.1385 60.6249 67.1339 60.4153C67.1363 60.2465 67.1003 60.0795 67.0285 59.9267C66.9735 59.7959 66.8755 59.6877 66.7507 59.6202" fill="#0098FF"/>
<path d="M52.9365 109.474C53.1416 109.351 53.3773 109.288 53.6167 109.292C53.8217 109.299 54.018 109.377 54.1723 109.512C54.3481 109.673 54.4772 109.878 54.5459 110.106C54.6478 110.395 54.6965 110.701 54.6896 111.007C54.6991 111.179 54.6991 111.352 54.6896 111.524C54.6674 111.702 54.6322 111.878 54.5843 112.051C54.5431 112.227 54.4887 112.4 54.4214 112.568C54.3543 112.741 54.2777 112.913 54.201 113.076C54.1184 113.238 54.0256 113.395 53.9232 113.546C53.8288 113.685 53.7264 113.82 53.6167 113.948C53.5153 114.061 53.4065 114.166 53.291 114.264C53.1813 114.356 53.0625 114.436 52.9365 114.504L48.2232 117.033C48.0288 117.155 47.8007 117.212 47.5717 117.196C47.37 117.175 47.1809 117.088 47.0353 116.946C46.874 116.779 46.7556 116.575 46.6904 116.352C46.6089 116.063 46.5702 115.763 46.5754 115.462C46.5823 115.285 46.5983 115.109 46.6233 114.935C46.6233 114.762 46.6904 114.59 46.7287 114.417C46.7776 114.248 46.8351 114.082 46.9011 113.919C46.9597 113.755 47.0302 113.595 47.1119 113.44C47.1871 113.289 47.2702 113.142 47.361 113C47.4523 112.866 47.5514 112.738 47.658 112.616C47.7535 112.499 47.8593 112.39 47.9741 112.291C48.0822 112.204 48.1976 112.127 48.319 112.061L52.9365 109.474ZM54.1627 111.294C54.1689 111.076 54.1365 110.859 54.0669 110.652C54.0191 110.492 53.9299 110.346 53.8083 110.231C53.6996 110.135 53.5604 110.081 53.4155 110.078C53.2469 110.07 53.0799 110.113 52.9365 110.202L48.2232 112.779C48.139 112.83 48.0589 112.888 47.9837 112.952C47.9032 113.018 47.8294 113.092 47.7633 113.172C47.6855 113.259 47.6151 113.352 47.5526 113.45C47.4863 113.549 47.4255 113.651 47.3705 113.756C47.3137 113.865 47.2626 113.977 47.2173 114.092L47.1023 114.456C47.1023 114.571 47.0448 114.695 47.0257 114.82C47.0165 114.941 47.0165 115.063 47.0257 115.184C47.0133 115.397 47.0392 115.612 47.1023 115.816C47.1474 115.976 47.2333 116.121 47.3514 116.238C47.4498 116.34 47.5832 116.401 47.725 116.41C47.8899 116.424 48.0547 116.384 48.1944 116.295L52.8982 113.756L53.1473 113.593C53.2286 113.522 53.3054 113.445 53.3772 113.364C53.4527 113.275 53.5231 113.182 53.5879 113.086C53.6606 112.977 53.7277 112.866 53.7891 112.75C53.8466 112.635 53.8945 112.521 53.9424 112.396C53.9894 112.274 54.0278 112.149 54.0573 112.022C54.0911 111.903 54.1167 111.781 54.134 111.658C54.134 111.534 54.134 111.409 54.134 111.294" fill="#0098FF"/>
<path d="M49.9766 112.885L52.9272 111.266C52.9866 111.248 53.0498 111.248 53.1092 111.266C53.1359 111.265 53.1624 111.269 53.1871 111.279C53.2119 111.289 53.2343 111.304 53.2529 111.323C53.3008 111.368 53.337 111.424 53.3583 111.486C53.3694 111.565 53.3694 111.646 53.3583 111.725C53.363 111.77 53.363 111.815 53.3583 111.859C53.3673 111.907 53.3673 111.956 53.3583 112.003C53.3626 112.051 53.3626 112.099 53.3583 112.147L53.3008 112.271L53.2242 112.396C53.2042 112.435 53.1784 112.47 53.1475 112.501L53.0613 112.588L52.9655 112.655L50.0053 114.264L49.9766 112.885Z" fill="#0098FF"/>
<path d="M98.4985 13.7228C98.732 13.5326 98.9982 13.3866 99.284 13.2917C99.5017 13.2279 99.7311 13.2148 99.9546 13.2534C100.152 13.2888 100.331 13.3901 100.462 13.5408C100.608 13.722 100.698 13.9417 100.721 14.1731L101.43 19.4708C101.444 19.6109 101.444 19.7522 101.43 19.8923C101.42 20.0466 101.401 20.2002 101.372 20.3521C101.372 20.5054 101.286 20.6683 101.229 20.8311C101.171 20.994 101.095 21.1568 101.008 21.3293C100.922 21.5017 100.826 21.655 100.731 21.8083C100.627 21.9614 100.515 22.1086 100.395 22.249C100.282 22.3868 100.16 22.5179 100.031 22.6417C99.9071 22.7582 99.776 22.867 99.6385 22.9674C99.3948 23.156 99.1189 23.2989 98.8242 23.389C98.5951 23.4499 98.354 23.4499 98.1249 23.389C97.9262 23.3405 97.7483 23.2297 97.6171 23.0728C97.4744 22.8799 97.3881 22.651 97.368 22.4118L96.7262 17.1237C96.7166 16.9865 96.7166 16.8489 96.7262 16.7118C96.7351 16.56 96.7576 16.4093 96.7933 16.2615C96.8324 16.1056 96.8804 15.9521 96.937 15.8017C96.9951 15.6401 97.0656 15.4831 97.1477 15.3322C97.2244 15.179 97.3106 15.0353 97.4064 14.882C97.5022 14.7287 97.6076 14.5946 97.7225 14.4509C97.9457 14.183 98.1961 13.939 98.4697 13.7228H98.4985ZM100.156 14.5754C100.136 14.4147 100.073 14.2624 99.9738 14.1348C99.8811 14.0238 99.7522 13.9491 99.6098 13.924C99.4522 13.8876 99.2884 13.8876 99.1308 13.924C98.9284 13.998 98.7379 14.1013 98.5655 14.2306C98.4662 14.3057 98.3733 14.3891 98.2877 14.4796C98.1998 14.5644 98.1166 14.6539 98.0386 14.7479C97.9589 14.8454 97.8853 14.9478 97.8183 15.0544C97.7453 15.1574 97.6813 15.2664 97.6267 15.3801C97.5691 15.4842 97.5211 15.5932 97.483 15.7059C97.483 15.8112 97.4064 15.9262 97.3776 16.0316C97.3489 16.137 97.3776 16.2423 97.3297 16.3477C97.32 16.4465 97.32 16.5459 97.3297 16.6447L97.9716 21.9328C97.9893 22.1027 98.0522 22.2648 98.1536 22.4022C98.2458 22.5155 98.3745 22.5934 98.5176 22.6226C98.6772 22.6691 98.8467 22.6691 99.0062 22.6226C99.2123 22.5545 99.4062 22.4543 99.581 22.3256C99.6778 22.2542 99.7706 22.1775 99.8588 22.0957C99.9524 22.0102 100.039 21.9173 100.117 21.8179C100.203 21.7189 100.279 21.6131 100.347 21.5017C100.423 21.3956 100.491 21.2835 100.549 21.1664C100.608 21.0552 100.659 20.9399 100.702 20.8215C100.743 20.7092 100.775 20.5939 100.798 20.4767C100.828 20.3706 100.844 20.2611 100.846 20.1509C100.86 20.0557 100.86 19.9588 100.846 19.8636L100.156 14.5563" fill="#0098FF"/>
<path d="M98.4507 18.0435L99.5236 17.2388L99.9547 20.5821C99.9645 20.6199 99.9645 20.6594 99.9547 20.6971C99.9593 20.7385 99.9593 20.7803 99.9547 20.8216C99.9589 20.8631 99.9589 20.9048 99.9547 20.9462C99.9439 20.994 99.9244 21.0395 99.8973 21.0803L99.8302 21.2048L99.744 21.3198L99.6482 21.4252L99.5428 21.5114C99.4768 21.5626 99.4022 21.6015 99.3225 21.6264C99.26 21.645 99.1934 21.645 99.1309 21.6264C99.0798 21.614 99.0333 21.5874 98.9967 21.5497C98.9574 21.4967 98.9342 21.4335 98.9297 21.3677L98.4507 18.0435Z" fill="#0098FF"/>
<path d="M147.634 -1.69133C147.839 -2.08867 148.094 -2.45877 148.391 -2.79302C148.675 -3.12003 148.997 -3.41261 149.349 -3.6648C149.677 -3.90486 150.038 -4.09531 150.422 -4.23001C150.756 -4.35251 151.111 -4.40785 151.466 -4.39286C151.764 -4.38015 152.052 -4.27653 152.29 -4.09589C152.506 -3.92056 152.663 -3.68316 152.74 -3.41572C152.813 -3.1005 152.813 -2.77294 152.74 -2.45772C152.675 -2.05635 152.546 -1.66812 152.357 -1.30813L148.305 6.62405C148.095 7.02942 147.834 7.40613 147.529 7.7449C147.244 8.06892 146.923 8.35832 146.571 8.6071C146.242 8.8358 145.88 9.01344 145.498 9.13399C145.165 9.2462 144.812 9.28541 144.463 9.24895C144.172 9.21849 143.897 9.09794 143.677 8.90407C143.471 8.71403 143.324 8.46758 143.256 8.19516C143.19 7.8792 143.19 7.55313 143.256 7.23717C143.329 6.83967 143.462 6.45539 143.649 6.09715L147.634 -1.69133ZM151.705 -1.35603C151.845 -1.60929 151.939 -1.88483 151.983 -2.17032C152.032 -2.39443 152.032 -2.62639 151.983 -2.8505C151.927 -3.03995 151.813 -3.20726 151.658 -3.32949C151.494 -3.46072 151.292 -3.53476 151.083 -3.54025C150.829 -3.55501 150.575 -3.51919 150.336 -3.43487C150.068 -3.3311 149.814 -3.19605 149.579 -3.03252C149.326 -2.85125 149.095 -2.64239 148.889 -2.40982C148.677 -2.17573 148.497 -1.91485 148.353 -1.63385L144.367 6.1738C144.234 6.42531 144.143 6.69725 144.099 6.97851C144.046 7.20532 144.046 7.44145 144.099 7.66826C144.147 7.85987 144.25 8.03313 144.396 8.16642C144.553 8.30609 144.752 8.39025 144.961 8.40592C145.207 8.43076 145.454 8.40467 145.689 8.32928C145.957 8.24 146.212 8.11429 146.446 7.95566C146.698 7.77783 146.93 7.57217 147.136 7.34255C147.349 7.10363 147.532 6.83987 147.682 6.55699L151.686 -1.35603" fill="#0098FF"/>
<path d="M147.854 1.38379L149.129 1.49875L146.609 6.43241C146.553 6.54091 146.482 6.64091 146.398 6.72939C146.324 6.81844 146.237 6.89593 146.14 6.95931C146.052 7.0223 145.955 7.07082 145.852 7.10301C145.761 7.12108 145.666 7.12108 145.574 7.10301C145.496 7.09297 145.423 7.05959 145.364 7.00721C145.306 6.95741 145.265 6.89019 145.249 6.81561C145.234 6.73001 145.234 6.64255 145.249 6.55695C145.272 6.45116 145.308 6.34834 145.354 6.25039L147.854 1.38379Z" fill="#0098FF"/>
<path d="M66.8366 156.521C67.0168 156.166 67.2529 155.843 67.5359 155.563C67.7633 155.332 68.0377 155.152 68.3407 155.036C68.602 154.931 68.8883 154.904 69.1645 154.96C69.4508 155.025 69.7091 155.179 69.9022 155.4C70.1372 155.66 70.3136 155.967 70.4195 156.301C70.5384 156.683 70.6061 157.079 70.6207 157.479C70.6306 157.917 70.5888 158.354 70.4961 158.782C70.4006 159.225 70.2459 159.654 70.0363 160.056L65.984 167.998C65.8053 168.354 65.569 168.677 65.2847 168.956C65.0568 169.191 64.7783 169.371 64.4704 169.483C64.2057 169.568 63.9207 169.568 63.6561 169.483C63.3688 169.394 63.115 169.22 62.928 168.985C62.7044 168.701 62.5414 168.375 62.449 168.027C62.3403 167.633 62.2824 167.228 62.2766 166.82C62.2728 166.384 62.321 165.95 62.4203 165.526C62.5126 165.086 62.6641 164.661 62.8705 164.262L66.8366 156.521ZM69.5669 159.491C69.712 159.206 69.8183 158.903 69.883 158.59C69.9519 158.276 69.9809 157.954 69.9693 157.632C69.9605 157.35 69.9154 157.07 69.8351 156.799C69.7589 156.565 69.635 156.35 69.4711 156.167C69.3323 156.009 69.1483 155.899 68.9442 155.851C68.7479 155.813 68.5451 155.833 68.3598 155.908C68.1454 155.992 67.9524 156.123 67.7946 156.291C67.5941 156.494 67.4261 156.727 67.2965 156.981L63.3112 164.789C63.1719 165.072 63.0658 165.371 62.9951 165.68C62.9278 165.994 62.8956 166.316 62.8993 166.638C62.8995 166.926 62.9415 167.213 63.0238 167.49C63.0917 167.735 63.2091 167.963 63.3687 168.161C63.5035 168.32 63.679 168.439 63.8764 168.506C64.0635 168.564 64.2641 168.564 64.4512 168.506C64.6693 168.428 64.8662 168.3 65.026 168.132C65.2287 167.927 65.3969 167.691 65.5242 167.433L69.5669 159.52" fill="#0098FF"/>
<path d="M67.9963 157.786C68.0476 157.688 68.112 157.598 68.1879 157.517C68.2486 157.457 68.3201 157.408 68.3986 157.374C68.4702 157.35 68.5474 157.35 68.619 157.374C68.6978 157.392 68.7684 157.436 68.8202 157.498C68.8832 157.566 68.9292 157.648 68.9543 157.738C68.9889 157.84 69.0083 157.946 69.0118 158.054C69.0259 158.168 69.0259 158.284 69.0118 158.399C68.9879 158.515 68.9493 158.628 68.8968 158.734L66.3294 163.658L65.4863 162.7L67.9963 157.786Z" fill="#0098FF"/>
<path d="M184.411 39.445C184.443 39.3854 184.478 39.3279 184.517 39.2726L184.651 39.1001L184.814 38.9564L185.005 38.8319L191.251 35.4119L191.864 37.0309L185.589 40.4413C185.465 40.5129 185.329 40.5616 185.187 40.585C185.064 40.6095 184.937 40.6095 184.814 40.585C184.705 40.5608 184.603 40.5116 184.517 40.4413C184.427 40.3696 184.36 40.2729 184.325 40.1635C184.318 40.1062 184.318 40.0484 184.325 39.9911C184.32 39.9337 184.32 39.876 184.325 39.8186C184.336 39.7537 184.352 39.6897 184.373 39.627C184.378 39.565 184.391 39.5038 184.411 39.445Z" fill="#0098FF"/>
<path d="M117.907 166.532C118.309 166.423 118.732 166.423 119.134 166.532C119.54 166.636 119.914 166.836 120.226 167.117C120.575 167.427 120.861 167.801 121.069 168.218C121.303 168.701 121.458 169.219 121.529 169.751L123.061 181.247C123.081 181.537 123.081 181.828 123.061 182.119C123.06 182.405 123.035 182.69 122.985 182.971C122.946 183.251 122.882 183.527 122.793 183.795C122.71 184.059 122.604 184.315 122.477 184.562C122.358 184.798 122.217 185.022 122.056 185.232C121.908 185.43 121.741 185.613 121.557 185.778C121.384 185.929 121.194 186.061 120.992 186.171C120.797 186.273 120.592 186.353 120.379 186.41C119.96 186.53 119.515 186.53 119.095 186.41C118.677 186.274 118.296 186.041 117.984 185.73C117.631 185.384 117.345 184.974 117.141 184.523C116.91 184.016 116.758 183.477 116.691 182.923L115.33 171.609C115.307 171.335 115.307 171.06 115.33 170.786C115.332 170.516 115.358 170.246 115.407 169.981C115.452 169.718 115.516 169.459 115.599 169.205C115.681 168.954 115.784 168.711 115.905 168.477C116.017 168.252 116.148 168.037 116.298 167.835C116.44 167.644 116.601 167.468 116.777 167.308C116.941 167.155 117.121 167.02 117.314 166.906C117.497 166.76 117.696 166.634 117.907 166.532ZM120.609 169.981C120.565 169.605 120.458 169.239 120.293 168.898C120.146 168.602 119.944 168.335 119.699 168.113C119.481 167.916 119.218 167.774 118.933 167.701C118.647 167.624 118.346 167.624 118.061 167.701C117.915 167.748 117.773 167.809 117.639 167.883C117.501 167.964 117.372 168.06 117.256 168.17C117.135 168.282 117.023 168.404 116.921 168.534C116.82 168.683 116.728 168.836 116.643 168.994C116.558 169.162 116.484 169.334 116.423 169.511C116.368 169.694 116.323 169.88 116.288 170.067C116.274 170.255 116.274 170.444 116.288 170.632C116.269 170.827 116.269 171.022 116.288 171.217L117.668 182.55C117.716 182.945 117.826 183.329 117.994 183.69C118.136 184.009 118.338 184.298 118.588 184.542C118.811 184.758 119.079 184.922 119.373 185.021C119.686 185.112 120.018 185.112 120.331 185.021C120.482 184.982 120.626 184.924 120.762 184.849C120.91 184.778 121.046 184.684 121.165 184.571C121.294 184.461 121.41 184.335 121.51 184.198C121.625 184.049 121.725 183.888 121.807 183.719C121.894 183.546 121.967 183.366 122.027 183.182C122.089 182.991 122.137 182.796 122.171 182.598C122.186 182.397 122.186 182.195 122.171 181.994C122.185 181.79 122.185 181.585 122.171 181.381L120.657 169.943" fill="#0098FF"/>
<path d="M117.745 169.971C117.775 169.914 117.81 169.859 117.85 169.808C117.887 169.757 117.929 169.708 117.975 169.665L118.119 169.55L118.281 169.483C118.391 169.449 118.507 169.449 118.617 169.483C118.724 169.514 118.822 169.57 118.904 169.646C118.996 169.729 119.071 169.83 119.124 169.943C119.191 170.067 119.234 170.204 119.249 170.345L120.207 177.444L118.531 177.894L117.64 170.824C117.635 170.751 117.635 170.677 117.64 170.604C117.634 170.53 117.634 170.457 117.64 170.383L117.697 170.172C117.709 170.104 117.725 170.037 117.745 169.971Z" fill="#0098FF"/>
<path d="M194.192 31.1198C194.678 30.8451 195.206 30.651 195.754 30.5451C196.238 30.4547 196.735 30.4547 197.219 30.5451C197.656 30.6164 198.07 30.7904 198.426 31.0528C198.779 31.3106 199.051 31.6626 199.212 32.0683C199.371 32.4897 199.433 32.9415 199.394 33.3903C199.365 33.6331 199.317 33.8733 199.25 34.1088C199.173 34.3643 199.07 34.6114 198.944 34.8464C198.816 35.0923 198.672 35.3291 198.513 35.5554C198.344 35.7827 198.158 35.9973 197.957 36.1972C197.545 36.5988 197.081 36.9436 196.578 37.2223L186.385 42.702C185.917 42.9631 185.409 43.1414 184.881 43.2289C184.422 43.3157 183.95 43.3157 183.491 43.2289C183.084 43.1337 182.704 42.947 182.38 42.6828C182.063 42.4125 181.825 42.0617 181.69 41.6674C181.621 41.4626 181.576 41.2504 181.556 41.0351C181.532 40.8154 181.532 40.5938 181.556 40.3741C181.609 39.8832 181.758 39.4076 181.997 38.9754C182.114 38.7403 182.252 38.5159 182.409 38.3048C182.565 38.0873 182.738 37.8823 182.926 37.6917C183.111 37.4956 183.313 37.3161 183.53 37.1552C183.747 36.9909 183.974 36.8405 184.21 36.7049L194.192 31.1198ZM198.082 32.6526C197.964 32.368 197.772 32.12 197.526 31.9341C197.278 31.7497 196.988 31.6281 196.683 31.5797C196.338 31.5176 195.984 31.5176 195.639 31.5797C195.253 31.6616 194.882 31.8005 194.537 31.9916L184.536 37.5097C184.366 37.6038 184.203 37.7094 184.047 37.8258C183.897 37.946 183.753 38.0739 183.616 38.209C183.484 38.3438 183.363 38.4879 183.252 38.6401C183.033 38.9291 182.865 39.253 182.754 39.5981C182.705 39.7577 182.67 39.9211 182.648 40.0867C182.629 40.2458 182.629 40.4066 182.648 40.5657C182.661 40.7161 182.693 40.8643 182.744 41.0063C182.84 41.285 183.009 41.5331 183.233 41.7248C183.462 41.9114 183.73 42.0425 184.018 42.108C184.335 42.1681 184.66 42.1681 184.976 42.108C185.352 42.0426 185.714 41.9165 186.049 41.7344L196.204 36.2451C196.385 36.148 196.559 36.0359 196.721 35.9098C196.885 35.7922 197.039 35.6608 197.181 35.517C197.317 35.3738 197.445 35.2235 197.564 35.0668C197.679 34.9088 197.782 34.7422 197.871 34.5686C197.961 34.4052 198.032 34.2315 198.082 34.0513C198.134 33.8861 198.169 33.716 198.187 33.5436C198.201 33.381 198.201 33.2175 198.187 33.055C198.168 32.9006 198.129 32.7493 198.072 32.6047" fill="#0098FF"/>
<path d="M175.712 117.291C175.784 117.155 175.878 117.032 175.99 116.927C176.098 116.826 176.225 116.748 176.364 116.697C176.495 116.647 176.635 116.624 176.776 116.63C176.923 116.633 177.067 116.669 177.197 116.736L183.376 119.859L182.342 121.995L176.182 118.815C176.053 118.75 175.938 118.658 175.847 118.546C175.761 118.432 175.7 118.301 175.665 118.163C175.64 118.02 175.64 117.875 175.665 117.732C175.655 117.583 175.671 117.434 175.712 117.291Z" fill="#0098FF"/>
<path d="M173.155 115.979C173.415 115.469 173.765 115.012 174.19 114.628C174.591 114.266 175.056 113.981 175.56 113.785C176.051 113.594 176.575 113.5 177.102 113.507C177.637 113.526 178.163 113.656 178.644 113.89L188.703 118.843C189.217 119.105 189.673 119.466 190.044 119.907C190.409 120.342 190.679 120.847 190.84 121.392C191.006 121.947 191.068 122.528 191.022 123.106C190.962 123.714 190.79 124.305 190.514 124.85C190.239 125.393 189.861 125.877 189.403 126.277C188.963 126.656 188.456 126.949 187.908 127.139C187.37 127.325 186.8 127.403 186.232 127.369C185.659 127.331 185.1 127.171 184.593 126.9L174.678 121.66C174.207 121.409 173.795 121.06 173.471 120.635C173.149 120.216 172.915 119.737 172.781 119.226C172.642 118.702 172.603 118.156 172.667 117.617C172.724 117.045 172.89 116.489 173.155 115.979ZM188.1 120.022L178.06 115.03C177.725 114.856 177.355 114.761 176.977 114.753C176.604 114.745 176.233 114.81 175.885 114.944C175.53 115.082 175.205 115.287 174.927 115.548C174.485 115.951 174.161 116.468 173.992 117.042C173.823 117.617 173.815 118.226 173.969 118.805C174.068 119.153 174.234 119.479 174.458 119.763C174.682 120.066 174.974 120.312 175.311 120.481L185.216 125.722C185.58 125.908 185.977 126.019 186.385 126.047C186.785 126.074 187.186 126.019 187.563 125.885C187.95 125.748 188.307 125.54 188.617 125.271C188.944 124.993 189.212 124.651 189.403 124.266C189.597 123.883 189.718 123.467 189.757 123.039C189.793 122.633 189.751 122.223 189.633 121.832C189.52 121.443 189.328 121.081 189.07 120.77C188.811 120.458 188.49 120.204 188.128 120.022" fill="#0098FF"/>
</g>
</g>
</g>
</g>
<defs>
<radialGradient id="paint0_radial_105_292" cx="0" cy="0" r="1" gradientUnits="userSpaceOnUse" gradientTransform="translate(203 777.07) rotate(-91.1059) scale(777.215 1884.17)">
<stop stop-color="#2E3192"/>
<stop offset="0.06" stop-color="#2A2D86"/>
<stop offset="0.38" stop-color="#181A4D"/>
<stop offset="0.66" stop-color="#0B0C23"/>
<stop offset="0.87" stop-color="#030309"/>
<stop offset="1"/>
</radialGradient>
<radialGradient id="paint1_radial_105_292" cx="0" cy="0" r="1" gradientUnits="userSpaceOnUse" gradientTransform="translate(290.5 812) rotate(-97.1945) scale(818.444 1898.82)">
<stop stop-color="#2E3192"/>
<stop offset="0.06" stop-color="#2A2D86"/>
<stop offset="0.287553" stop-color="#0B0C23"/>
<stop offset="0.38" stop-color="#181A4D"/>
<stop offset="0.542488" stop-color="#030309"/>
<stop offset="0.832216"/>
</radialGradient>
<radialGradient id="paint2_radial_105_292" cx="0" cy="0" r="1" gradientUnits="userSpaceOnUse" gradientTransform="translate(367.437 266.892) scale(55.1344)">
<stop offset="0.04" stop-color="white"/>
<stop offset="0.21" stop-color="#FDFCFE"/>
<stop offset="0.31" stop-color="#F7F4F9"/>
<stop offset="0.4" stop-color="#EDE6F2"/>
<stop offset="0.47" stop-color="#DED1E7"/>
<stop offset="0.54" stop-color="#CBB7D9"/>
<stop offset="0.61" stop-color="#B397C8"/>
<stop offset="0.67" stop-color="#9770B4"/>
<stop offset="0.73" stop-color="#77459E"/>
<stop offset="0.75" stop-color="#662D91"/>
<stop offset="1" stop-color="#3FA9F5"/>
</radialGradient>
<radialGradient id="paint3_radial_105_292" cx="0" cy="0" r="1" gradientUnits="userSpaceOnUse" gradientTransform="translate(241.765 -27.8809) rotate(52.9295) scale(59.5258 58.2933)">
<stop stop-color="#ED1E79"/>
<stop offset="0.81" stop-color="#1B1464"/>
<stop offset="1" stop-color="#662D91"/>
</radialGradient>
<radialGradient id="paint4_radial_105_292" cx="0" cy="0" r="1" gradientUnits="userSpaceOnUse" gradientTransform="translate(41.2785 561.896) rotate(52.9295) scale(146.453 143.42)">
<stop stop-color="#ED1E79"/>
<stop offset="0.81" stop-color="#1B1464"/>
<stop offset="1" stop-color="#662D91"/>
</radialGradient>
<radialGradient id="paint5_radial_105_292" cx="0" cy="0" r="1" gradientUnits="userSpaceOnUse" gradientTransform="translate(375.417 477.054) rotate(52.9295) scale(59.1409 57.9164)">
<stop stop-color="#ED1E79"/>
<stop offset="0.81" stop-color="#1B1464"/>
<stop offset="1" stop-color="#662D91"/>
</radialGradient>
<radialGradient id="paint6_radial_105_292" cx="0" cy="0" r="1" gradientUnits="userSpaceOnUse" gradientTransform="translate(382.841 217.837) rotate(-37.88) scale(176.056 126.234)">
<stop stop-color="#ED1E79"/>
<stop offset="1"/>
</radialGradient>
<radialGradient id="paint7_radial_105_292" cx="0" cy="0" r="1" gradientUnits="userSpaceOnUse" gradientTransform="translate(234.647 110.874) rotate(-37.88) scale(176.056 126.234)">
<stop stop-color="#ED1E79"/>
<stop offset="1"/>
</radialGradient>
<radialGradient id="paint8_radial_105_292" cx="0" cy="0" r="1" gradientUnits="userSpaceOnUse" gradientTransform="translate(226.559 596.874) rotate(-37.88) scale(176.056 126.234)">
<stop stop-color="#ED1E79"/>
<stop offset="1"/>
</radialGradient>
<radialGradient id="paint9_radial_105_292" cx="0" cy="0" r="1" gradientUnits="userSpaceOnUse" gradientTransform="translate(184.691 269.637) scale(176.092 34.6993)">
<stop stop-color="#ED1E79"/>
<stop offset="1"/>
</radialGradient>
<radialGradient id="paint10_radial_105_292" cx="0" cy="0" r="1" gradientUnits="userSpaceOnUse" gradientTransform="translate(181.69 733.637) scale(176.092 34.6993)">
<stop stop-color="#ED1E79"/>
<stop offset="1"/>
</radialGradient>
<radialGradient id="paint11_radial_105_292" cx="0" cy="0" r="1" gradientUnits="userSpaceOnUse" gradientTransform="translate(109.344 188.013) rotate(16.05) scale(65.2516 48.7772)">
<stop stop-color="#29ABE2"/>
<stop offset="0.18" stop-color="#1F81AA"/>
<stop offset="0.39" stop-color="#14536E"/>
<stop offset="0.59" stop-color="#0B2F3F"/>
<stop offset="0.76" stop-color="#05161C"/>
<stop offset="0.91" stop-color="#010608"/>
<stop offset="1"/>
</radialGradient>
<radialGradient id="paint12_radial_105_292" cx="0" cy="0" r="1" gradientUnits="userSpaceOnUse" gradientTransform="translate(403.936 114.461) rotate(16.2602) scale(109.238 81.658)">
<stop stop-color="#29ABE2"/>
<stop offset="0.18" stop-color="#1F81AA"/>
<stop offset="0.39" stop-color="#14536E"/>
<stop offset="0.59" stop-color="#0B2F3F"/>
<stop offset="0.76" stop-color="#05161C"/>
<stop offset="0.91" stop-color="#010608"/>
<stop offset="1"/>
</radialGradient>
<clipPath id="clip0_105_292">
<rect width="375" height="812" fill="white"/>
</clipPath>
</defs>
</svg>
