<svg width="172" height="60" viewBox="0 0 172 60" fill="none" xmlns="http://www.w3.org/2000/svg">
<path d="M5.0693 25.5975C4.07654 25.5975 3.31611 25.3441 2.78803 24.8371C2.28107 24.309 2.02759 23.5592 2.02759 22.5875V6.26991C2.02759 5.29824 2.28107 4.55892 2.78803 4.05197C3.31611 3.52392 4.07654 3.25987 5.0693 3.25987H11.2795C15.1662 3.25987 18.1656 4.23154 20.2779 6.17484C22.4114 8.11817 23.4781 10.8642 23.4781 14.4129C23.4781 16.1872 23.2035 17.7714 22.6543 19.1656C22.1051 20.5385 21.313 21.7109 20.2779 22.6825C19.2429 23.6331 17.965 24.3618 16.4441 24.8688C14.9444 25.3546 13.2228 25.5975 11.2795 25.5975H5.0693ZM7.85756 20.8765H10.8993C12.0188 20.8765 12.9799 20.7392 13.7826 20.4646C14.6064 20.19 15.2823 19.7887 15.8104 19.2606C16.3596 18.7325 16.7609 18.0672 17.0144 17.2645C17.289 16.4618 17.4263 15.5112 17.4263 14.4129C17.4263 12.2161 16.8877 10.6001 15.8104 9.56511C14.7331 8.50895 13.0961 7.98087 10.8993 7.98087H7.85756V20.8765ZM29.9776 25.5975C28.9848 25.5975 28.2244 25.3441 27.6964 24.8371C27.1894 24.309 26.9359 23.5592 26.9359 22.5875V6.26991C26.9359 5.29824 27.1894 4.55892 27.6964 4.05197C28.2244 3.52392 28.9848 3.25987 29.9776 3.25987H40.7188C41.4793 3.25987 42.0495 3.44998 42.4297 3.83019C42.8099 4.21041 43.0001 4.75959 43.0001 5.47778C43.0001 6.2171 42.8099 6.78742 42.4297 7.18877C42.0495 7.56898 41.4793 7.75909 40.7188 7.75909H32.5124V12.0048H40.0217C40.761 12.0048 41.3208 12.1949 41.701 12.5751C42.1023 12.9554 42.3029 13.5151 42.3029 14.2544C42.3029 14.9938 42.1023 15.5535 41.701 15.9337C41.3208 16.3139 40.761 16.504 40.0217 16.504H32.5124V21.0983H40.7188C41.4793 21.0983 42.0495 21.299 42.4297 21.7003C42.8099 22.0806 43.0001 22.6297 43.0001 23.3479C43.0001 24.0872 42.8099 24.647 42.4297 25.0272C42.0495 25.4074 41.4793 25.5975 40.7188 25.5975H29.9776ZM49.1233 25.8827C48.2361 25.8827 47.5603 25.6503 47.0955 25.1856C46.6307 24.7209 46.3986 24.0344 46.3986 23.1261V5.858C46.3986 4.9286 46.6307 4.22097 47.0955 3.73513C47.5603 3.22818 48.1729 2.9747 48.9333 2.9747C49.6092 2.9747 50.1372 3.10144 50.5174 3.35491C50.8976 3.60839 51.3203 4.03087 51.7848 4.62229L61.8288 17.1694H60.9416V5.69959C60.9416 4.81242 61.1634 4.13647 61.6071 3.67176C62.0719 3.20704 62.7477 2.9747 63.6349 2.9747C64.522 2.9747 65.1875 3.20704 65.6309 3.67176C66.0957 4.13647 66.3281 4.81242 66.3281 5.69959V23.2529C66.3281 24.0556 66.1168 24.6998 65.6944 25.1856C65.2721 25.6503 64.7016 25.8827 63.9833 25.8827C63.2653 25.8827 62.6949 25.756 62.2725 25.5025C61.8712 25.2279 61.4382 24.8054 60.9734 24.2351L50.9294 11.6563H51.8165V23.1261C51.8165 24.0344 51.5841 24.7209 51.1193 25.1856C50.6759 25.6503 50.0104 25.8827 49.1233 25.8827ZM4.94257 55.4994C4.01317 55.4994 3.29498 55.2459 2.78803 54.7389C2.28107 54.2109 2.02759 53.482 2.02759 52.5526V35.823C2.02759 34.8726 2.28107 34.1439 2.78803 33.637C3.31611 33.13 4.04484 32.8765 4.97426 32.8765H12.7687C15.3035 32.8765 17.2573 33.5313 18.6303 34.8408C20.0245 36.1293 20.7215 37.9143 20.7215 40.1956C20.7215 42.4769 20.0245 44.2723 18.6303 45.5821C17.2573 46.8705 15.3035 47.5149 12.7687 47.5149H7.85756V52.5526C7.85756 53.482 7.61465 54.2109 7.12881 54.7389C6.64299 55.2459 5.91423 55.4994 4.94257 55.4994ZM7.85756 43.0473H11.7548C12.8532 43.0473 13.6981 42.8149 14.2895 42.3501C14.881 41.8642 15.1767 41.1462 15.1767 40.1956C15.1767 39.2238 14.881 38.5058 14.2895 38.041C13.6981 37.5762 12.8532 37.3441 11.7548 37.3441H7.85756V43.0473ZM27.7967 55.5626C26.5926 55.5626 25.5259 55.3409 24.5965 54.8971C23.6882 54.4537 22.97 53.8518 22.4419 53.0913C21.9349 52.3098 21.6815 51.4224 21.6815 50.4298C21.6815 49.2892 21.9772 48.3914 22.5686 47.7366C23.1601 47.0818 24.1106 46.617 25.4202 46.3425C26.7299 46.0466 28.4725 45.8988 30.6481 45.8988H32.391V48.5603H30.6481C29.8245 48.5603 29.138 48.6238 28.5889 48.7505C28.0606 48.8562 27.6699 49.0357 27.4165 49.2892C27.163 49.5213 27.0362 49.8276 27.0362 50.2079C27.0362 50.6937 27.2051 51.095 27.5432 51.412C27.9023 51.7287 28.4093 51.8872 29.0641 51.8872C29.5921 51.8872 30.0569 51.7711 30.4582 51.5387C30.8805 51.3063 31.2186 50.9896 31.4721 50.5881C31.7255 50.1657 31.8523 49.6798 31.8523 49.1307V45.4553C31.8523 44.6949 31.6516 44.1562 31.2503 43.8392C30.8701 43.5225 30.2047 43.364 29.254 43.364C28.7471 43.364 28.1769 43.4275 27.5432 43.5543C26.9095 43.6599 26.2018 43.8606 25.4202 44.1562C24.8499 44.3675 24.3641 44.399 23.9628 44.2512C23.5614 44.1034 23.2446 43.8499 23.0122 43.4908C22.801 43.1316 22.6954 42.741 22.6954 42.3184C22.7165 41.896 22.8538 41.4947 23.1073 41.1145C23.3819 40.7343 23.7938 40.4386 24.343 40.2273C25.3569 39.8471 26.2863 39.5936 27.1312 39.4669C27.9973 39.3402 28.7895 39.2767 29.5075 39.2767C31.2397 39.2767 32.6655 39.5301 33.7851 40.0371C34.9257 40.523 35.7705 41.2834 36.3198 42.3184C36.89 43.3323 37.1753 44.6421 37.1753 46.2475V52.6476C37.1753 53.5772 36.9535 54.2848 36.5098 54.7704C36.0664 55.2563 35.422 55.4994 34.577 55.4994C33.7112 55.4994 33.0457 55.2563 32.581 54.7704C32.1375 54.2848 31.9155 53.5772 31.9155 52.6476V51.824L32.1058 52.2674C32.0001 52.9435 31.7573 53.5244 31.3771 54.01C30.9969 54.4959 30.5003 54.8761 29.8877 55.1506C29.2751 55.4254 28.5782 55.5626 27.7967 55.5626ZM43.2701 55.4994C42.3406 55.4994 41.6226 55.2563 41.1156 54.7704C40.6297 54.2848 40.3867 53.5772 40.3867 52.6476V42.1601C40.3867 41.2516 40.6191 40.5547 41.0839 40.0688C41.5697 39.583 42.2562 39.3402 43.1434 39.3402C44.0306 39.3402 44.7064 39.583 45.1712 40.0688C45.636 40.5547 45.8681 41.2516 45.8681 42.1601V43.459H45.5514C45.7627 42.1916 46.3012 41.1884 47.1673 40.4491C48.0544 39.7097 49.1529 39.3191 50.4624 39.2767C51.075 39.2556 51.5292 39.4141 51.8251 39.7521C52.1418 40.0688 52.3107 40.6708 52.332 41.5579C52.332 42.3184 52.1735 42.9206 51.8566 43.364C51.5398 43.8077 50.9379 44.0716 50.0505 44.1562L49.3218 44.2194C48.2022 44.3251 47.389 44.6421 46.882 45.1701C46.3751 45.6771 46.1216 46.4375 46.1216 47.4514V52.6476C46.1216 53.5772 45.8788 54.2848 45.3929 54.7704C44.9071 55.2563 44.1995 55.4994 43.2701 55.4994ZM61.9916 55.4994C61.2522 55.4994 60.6185 55.3198 60.0905 54.9607C59.5835 54.5804 59.1609 54.0207 58.8231 53.2813L54.292 42.9206C54.0386 42.2869 53.9543 41.6954 54.0386 41.1462C54.1232 40.5969 54.3873 40.1638 54.8307 39.8471C55.2955 39.5091 55.9292 39.3402 56.7318 39.3402C57.4079 39.3402 57.9464 39.4987 58.3477 39.8154C58.7703 40.111 59.1505 40.7025 59.4883 41.5897L62.6885 49.8276H61.6113L64.9698 41.5579C65.3078 40.6921 65.688 40.111 66.1104 39.8154C66.533 39.4987 67.1139 39.3402 67.8532 39.3402C68.4869 39.3402 68.9939 39.5091 69.3741 39.8471C69.7754 40.1638 70.0182 40.5969 70.1028 41.1462C70.1874 41.6954 70.0817 42.2869 69.7858 42.9206L65.16 53.3131C64.843 54.0524 64.4207 54.6015 63.8926 54.9607C63.3857 55.3198 62.752 55.4994 61.9916 55.4994ZM75.0453 55.4994C74.1581 55.4994 73.4716 55.2352 72.9857 54.7072C72.5001 54.1791 72.257 53.4187 72.257 52.4259V42.4136C72.257 41.4208 72.5001 40.6604 72.9857 40.1323C73.4716 39.604 74.1581 39.3402 75.0453 39.3402C75.9535 39.3402 76.6507 39.604 77.1366 40.1323C77.6435 40.6604 77.897 41.4208 77.897 42.4136V52.4259C77.897 53.4187 77.6539 54.1791 77.1683 54.7072C76.6825 55.2352 75.9749 55.4994 75.0453 55.4994ZM75.0453 37.0906C74.0525 37.0906 73.2816 36.8582 72.7322 36.3935C72.2042 35.9287 71.9403 35.2528 71.9403 34.3656C71.9403 33.4996 72.2042 32.8341 72.7322 32.3696C73.2816 31.9048 74.0525 31.6724 75.0453 31.6724C76.0803 31.6724 76.862 31.9048 77.3901 32.3696C77.9181 32.8341 78.1822 33.4996 78.1822 34.3656C78.1822 35.2528 77.9181 35.9287 77.3901 36.3935C76.862 36.8582 76.0803 37.0906 75.0453 37.0906ZM86.5864 55.5626C85.3825 55.5626 84.3158 55.3409 83.3862 54.8971C82.478 54.4537 81.7597 53.8518 81.2317 53.0913C80.7247 52.3098 80.4712 51.4224 80.4712 50.4298C80.4712 49.2892 80.7672 48.3914 81.3584 47.7366C81.9499 47.0818 82.9003 46.617 84.2101 46.3425C85.5197 46.0466 87.2625 45.8988 89.4381 45.8988H91.1807V48.5603H89.4381C88.6142 48.5603 87.9277 48.6238 87.3786 48.7505C86.8506 48.8562 86.4597 49.0357 86.2062 49.2892C85.9527 49.5213 85.826 49.8276 85.826 50.2079C85.826 50.6937 85.9949 51.095 86.3329 51.412C86.6921 51.7287 87.199 51.8872 87.8538 51.8872C88.3818 51.8872 88.8466 51.7711 89.2479 51.5387C89.6705 51.3063 90.0083 50.9896 90.2618 50.5881C90.5153 50.1657 90.642 49.6798 90.642 49.1307V45.4553C90.642 44.6949 90.4414 44.1562 90.0401 43.8392C89.6599 43.5225 88.9944 43.364 88.044 43.364C87.5371 43.364 86.9666 43.4275 86.3329 43.5543C85.6992 43.6599 84.9916 43.8606 84.2101 44.1562C83.6397 44.3675 83.1541 44.399 82.7525 44.2512C82.3512 44.1034 82.0345 43.8499 81.8021 43.4908C81.5908 43.1316 81.4851 42.741 81.4851 42.3184C81.5062 41.896 81.6436 41.4947 81.8971 41.1145C82.1717 40.7343 82.5836 40.4386 83.1327 40.2273C84.1466 39.8471 85.0762 39.5936 85.921 39.4669C86.787 39.3402 87.5792 39.2767 88.2975 39.2767C90.0294 39.2767 91.4553 39.5301 92.5748 40.0371C93.7155 40.523 94.5605 41.2834 95.1096 42.3184C95.68 43.3323 95.965 44.6421 95.965 46.2475V52.6476C95.965 53.5772 95.7433 54.2848 95.2998 54.7704C94.8561 55.2563 94.212 55.4994 93.367 55.4994C92.5009 55.4994 91.8355 55.2563 91.371 54.7704C90.9272 54.2848 90.7055 53.5772 90.7055 52.6476V51.824L90.8955 52.2674C90.7898 52.9435 90.547 53.5244 90.1668 54.01C89.7866 54.4959 89.2903 54.8761 88.6777 55.1506C88.0651 55.4254 87.3679 55.5626 86.5864 55.5626ZM120.097 55.4994C119.21 55.4994 118.523 55.2563 118.037 54.7704C117.551 54.2848 117.309 53.5772 117.309 52.6476V42.1601C117.309 41.2516 117.541 40.5547 118.006 40.0688C118.491 39.583 119.178 39.3402 120.065 39.3402C120.952 39.3402 121.628 39.583 122.093 40.0688C122.558 40.5547 122.79 41.2516 122.79 42.1601V43.6493L122.442 42.3501C122.949 41.3573 123.667 40.5969 124.596 40.0688C125.547 39.5408 126.624 39.2767 127.828 39.2767C129.074 39.2767 130.099 39.5197 130.901 40.0056C131.704 40.4701 132.306 41.2095 132.707 42.2234C133.109 43.2162 133.309 44.4729 133.309 45.994V52.6476C133.309 53.5772 133.067 54.2848 132.581 54.7704C132.095 55.2563 131.398 55.4994 130.489 55.4994C129.581 55.4994 128.884 55.2563 128.398 54.7704C127.912 54.2848 127.669 53.5772 127.669 52.6476V46.2158C127.669 45.2651 127.501 44.5892 127.162 44.188C126.846 43.7867 126.371 43.5857 125.737 43.5857C124.892 43.5857 124.216 43.8606 123.709 44.4097C123.202 44.9377 122.949 45.656 122.949 46.5642V52.6476C122.949 54.5487 121.998 55.4994 120.097 55.4994ZM145.015 55.5626C143.114 55.5626 141.466 55.2352 140.072 54.5804C138.699 53.9046 137.643 52.9539 136.904 51.7287C136.165 50.5038 135.795 49.0568 135.795 47.3881C135.795 45.7827 136.143 44.3779 136.84 43.174C137.559 41.9488 138.53 40.9982 139.755 40.3223C141.002 39.6254 142.417 39.2767 144.001 39.2767C145.163 39.2767 146.219 39.4669 147.17 39.8471C148.12 40.2063 148.934 40.7447 149.609 41.463C150.285 42.1601 150.792 43.0049 151.13 43.9977C151.489 44.9905 151.669 46.0994 151.669 47.3246C151.669 47.747 151.553 48.064 151.32 48.2753C151.088 48.4653 150.718 48.5603 150.211 48.5603H140.516V45.8988H147.55L147.043 46.3107C147.043 45.5292 146.937 44.8955 146.726 44.4097C146.515 43.9238 146.198 43.5543 145.776 43.3008C145.374 43.0473 144.867 42.9206 144.255 42.9206C143.6 42.9206 143.029 43.0788 142.544 43.3958C142.079 43.6914 141.72 44.1351 141.466 44.7264C141.213 45.3179 141.086 46.0573 141.086 46.9444V47.2297C141.086 48.7294 141.414 49.8066 142.068 50.4613C142.745 51.095 143.779 51.412 145.174 51.412C145.638 51.412 146.166 51.3592 146.758 51.2535C147.37 51.1268 147.951 50.9579 148.501 50.7466C149.05 50.5352 149.525 50.5038 149.926 50.6516C150.328 50.7783 150.634 51.0107 150.845 51.3485C151.077 51.6655 151.204 52.035 151.225 52.4576C151.246 52.8589 151.151 53.2602 150.94 53.6615C150.729 54.0417 150.381 54.3376 149.895 54.5487C149.155 54.8867 148.363 55.1402 147.518 55.3091C146.694 55.4783 145.86 55.5626 145.015 55.5626ZM156.887 55.4994C156 55.4994 155.313 55.2563 154.828 54.7704C154.342 54.2848 154.099 53.5772 154.099 52.6476V42.1601C154.099 41.2516 154.331 40.5547 154.796 40.0688C155.282 39.583 155.968 39.3402 156.855 39.3402C157.743 39.3402 158.418 39.583 158.883 40.0688C159.348 40.5547 159.58 41.2516 159.58 42.1601V43.6493L159.232 42.3501C159.739 41.3573 160.457 40.5969 161.386 40.0688C162.337 39.5408 163.414 39.2767 164.618 39.2767C165.864 39.2767 166.889 39.5197 167.692 40.0056C168.494 40.4701 169.096 41.2095 169.497 42.2234C169.899 43.2162 170.1 44.4729 170.1 45.994V52.6476C170.1 53.5772 169.857 54.2848 169.371 54.7704C168.885 55.2563 168.188 55.4994 167.28 55.4994C166.371 55.4994 165.674 55.2563 165.188 54.7704C164.702 54.2848 164.46 53.5772 164.46 52.6476V46.2158C164.46 45.2651 164.291 44.5892 163.953 44.188C163.636 43.7867 163.16 43.5857 162.527 43.5857C161.682 43.5857 161.006 43.8606 160.499 44.4097C159.992 44.9377 159.739 45.656 159.739 46.5642V52.6476C159.739 54.5487 158.788 55.4994 156.887 55.4994Z" fill="white"/>
<path d="M111.885 42.5716C106.102 46.8361 105.479 50.6649 104.694 57.6734C99.5419 50.4 97.1166 46.1909 102.776 35.8596C105.363 39.0309 106.875 40.774 111.885 42.5716Z" fill="url(#paint0_linear_104_53)"/>
<path d="M111.167 39.9346C114.079 39.9346 116.44 37.6808 116.44 34.9006C116.44 32.1204 114.079 29.8666 111.167 29.8666C108.254 29.8666 105.893 32.1204 105.893 34.9006C105.893 37.6808 108.254 39.9346 111.167 39.9346Z" fill="url(#paint1_linear_104_53)"/>
<path d="M106.132 57.9133C106.013 55.406 106.194 54.0458 106.851 51.6807C110.533 54.0559 112.77 54.6311 117.399 55.2763C113.13 57.8257 110.9 58.9445 106.132 57.9133Z" fill="#4A61F0"/>
<defs>
<linearGradient id="paint0_linear_104_53" x1="105.704" y1="35.8596" x2="105.704" y2="57.6734" gradientUnits="userSpaceOnUse">
<stop stop-color="#0000C6"/>
<stop offset="1" stop-color="#4A61F0"/>
</linearGradient>
<linearGradient id="paint1_linear_104_53" x1="105.926" y1="34.9361" x2="117.933" y2="34.9361" gradientUnits="userSpaceOnUse">
<stop stop-color="#0000C6"/>
<stop offset="1" stop-color="#4A61F0"/>
</linearGradient>
</defs>
</svg>
