<svg width="172" height="60" viewBox="0 0 172 60" fill="none" xmlns="http://www.w3.org/2000/svg">
<path d="M5.06906 25.5975C4.07629 25.5975 3.31587 25.3441 2.78778 24.8371C2.28082 24.309 2.02734 23.5592 2.02734 22.5875V6.26991C2.02734 5.29824 2.28082 4.55892 2.78778 4.05197C3.31587 3.52392 4.07629 3.25987 5.06906 3.25987H11.2793C15.1659 3.25987 18.1654 4.23154 20.2777 6.17484C22.4111 8.11817 23.4779 10.8642 23.4779 14.4129C23.4779 16.1872 23.2032 17.7714 22.654 19.1656C22.1048 20.5385 21.3127 21.7109 20.2777 22.6825C19.2427 23.6331 17.9647 24.3618 16.4439 24.8688C14.9441 25.3546 13.2226 25.5975 11.2793 25.5975H5.06906ZM7.85732 20.8765H10.899C12.0186 20.8765 12.9797 20.7392 13.7823 20.4646C14.6061 20.19 15.2821 19.7887 15.8102 19.2606C16.3594 18.7325 16.7607 18.0672 17.0142 17.2645C17.2888 16.4618 17.4261 15.5112 17.4261 14.4129C17.4261 12.2161 16.8874 10.6001 15.8102 9.56511C14.7329 8.50895 13.0958 7.98087 10.899 7.98087H7.85732V20.8765ZM29.9774 25.5975C28.9846 25.5975 28.2241 25.3441 27.6961 24.8371C27.1892 24.309 26.9357 23.5592 26.9357 22.5875V6.26991C26.9357 5.29824 27.1892 4.55892 27.6961 4.05197C28.2241 3.52392 28.9846 3.25987 29.9774 3.25987H40.7186C41.479 3.25987 42.0492 3.44998 42.4294 3.83019C42.8096 4.21041 42.9999 4.75959 42.9999 5.47778C42.9999 6.2171 42.8096 6.78742 42.4294 7.18877C42.0492 7.56898 41.479 7.75909 40.7186 7.75909H32.5121V12.0048H40.0214C40.7608 12.0048 41.3205 12.1949 41.7008 12.5751C42.102 12.9554 42.3027 13.5151 42.3027 14.2544C42.3027 14.9938 42.102 15.5535 41.7008 15.9337C41.3205 16.3139 40.7608 16.504 40.0214 16.504H32.5121V21.0983H40.7186C41.479 21.0983 42.0492 21.299 42.4294 21.7003C42.8096 22.0806 42.9999 22.6297 42.9999 23.3479C42.9999 24.0872 42.8096 24.647 42.4294 25.0272C42.0492 25.4074 41.479 25.5975 40.7186 25.5975H29.9774ZM49.123 25.8827C48.2359 25.8827 47.56 25.6503 47.0952 25.1856C46.6304 24.7209 46.3983 24.0344 46.3983 23.1261V5.858C46.3983 4.9286 46.6304 4.22097 47.0952 3.73513C47.56 3.22818 48.1726 2.9747 48.9331 2.9747C49.6089 2.9747 50.1369 3.10144 50.5172 3.35491C50.8974 3.60839 51.32 4.03087 51.7845 4.62229L61.8286 17.1694H60.9414V5.69959C60.9414 4.81242 61.1631 4.13647 61.6068 3.67176C62.0716 3.20704 62.7475 2.9747 63.6346 2.9747C64.5218 2.9747 65.1872 3.20704 65.6307 3.67176C66.0955 4.13647 66.3279 4.81242 66.3279 5.69959V23.2529C66.3279 24.0556 66.1166 24.6998 65.6942 25.1856C65.2718 25.6503 64.7014 25.8827 63.9831 25.8827C63.2651 25.8827 62.6946 25.756 62.2723 25.5025C61.871 25.2279 61.4379 24.8054 60.9731 24.2351L50.9291 11.6563H51.8163V23.1261C51.8163 24.0344 51.5839 24.7209 51.1191 25.1856C50.6756 25.6503 50.0102 25.8827 49.123 25.8827ZM4.94232 55.4994C4.01292 55.4994 3.29473 55.2459 2.78778 54.7389C2.28082 54.2109 2.02734 53.482 2.02734 52.5526V35.823C2.02734 34.8726 2.28082 34.1439 2.78778 33.637C3.31587 33.13 4.04459 32.8765 4.97402 32.8765H12.7684C15.3032 32.8765 17.2571 33.5313 18.6301 34.8408C20.0242 36.1293 20.7213 37.9143 20.7213 40.1956C20.7213 42.4769 20.0242 44.2723 18.6301 45.5821C17.2571 46.8705 15.3032 47.5149 12.7684 47.5149H7.85732V52.5526C7.85732 53.482 7.61441 54.2109 7.12856 54.7389C6.64274 55.2459 5.91399 55.4994 4.94232 55.4994ZM7.85732 43.0473H11.7545C12.8529 43.0473 13.6978 42.8149 14.2893 42.3501C14.8807 41.8642 15.1765 41.1462 15.1765 40.1956C15.1765 39.2238 14.8807 38.5058 14.2893 38.041C13.6978 37.5762 12.8529 37.3441 11.7545 37.3441H7.85732V43.0473ZM27.7964 55.5626C26.5923 55.5626 25.5256 55.3409 24.5962 54.8971C23.6879 54.4537 22.9697 53.8518 22.4416 53.0913C21.9347 52.3098 21.6812 51.4224 21.6812 50.4298C21.6812 49.2892 21.977 48.3914 22.5684 47.7366C23.1598 47.0818 24.1104 46.617 25.42 46.3425C26.7297 46.0466 28.4723 45.8988 30.6479 45.8988H32.3907V48.5603H30.6479C29.8242 48.5603 29.1377 48.6238 28.5886 48.7505C28.0603 48.8562 27.6697 49.0357 27.4162 49.2892C27.1627 49.5213 27.036 49.8276 27.036 50.2079C27.036 50.6937 27.2049 51.095 27.543 51.412C27.9021 51.7287 28.409 51.8872 29.0638 51.8872C29.5918 51.8872 30.0566 51.7711 30.4579 51.5387C30.8803 51.3063 31.2183 50.9896 31.4718 50.5881C31.7253 50.1657 31.852 49.6798 31.852 49.1307V45.4553C31.852 44.6949 31.6514 44.1562 31.2501 43.8392C30.8699 43.5225 30.2044 43.364 29.2538 43.364C28.7468 43.364 28.1766 43.4275 27.543 43.5543C26.9093 43.6599 26.2016 43.8606 25.42 44.1562C24.8497 44.3675 24.3639 44.399 23.9625 44.2512C23.5612 44.1034 23.2443 43.8499 23.012 43.4908C22.8008 43.1316 22.6951 42.741 22.6951 42.3184C22.7163 41.896 22.8536 41.4947 23.107 41.1145C23.3816 40.7343 23.7935 40.4386 24.3427 40.2273C25.3566 39.8471 26.2861 39.5936 27.131 39.4669C27.9971 39.3402 28.7893 39.2767 29.5073 39.2767C31.2394 39.2767 32.6653 39.5301 33.7849 40.0371C34.9255 40.523 35.7702 41.2834 36.3196 42.3184C36.8898 43.3323 37.175 44.6421 37.175 46.2475V52.6476C37.175 53.5772 36.9533 54.2848 36.5096 54.7704C36.0661 55.2563 35.4218 55.4994 34.5768 55.4994C33.7109 55.4994 33.0455 55.2563 32.5807 54.7704C32.1373 54.2848 31.9153 53.5772 31.9153 52.6476V51.824L32.1055 52.2674C31.9999 52.9435 31.757 53.5244 31.3768 54.01C30.9966 54.4959 30.5001 54.8761 29.8875 55.1506C29.2749 55.4254 28.5779 55.5626 27.7964 55.5626ZM43.2699 55.4994C42.3403 55.4994 41.6223 55.2563 41.1154 54.7704C40.6295 54.2848 40.3864 53.5772 40.3864 52.6476V42.1601C40.3864 41.2516 40.6188 40.5547 41.0836 40.0688C41.5695 39.583 42.256 39.3402 43.1432 39.3402C44.0303 39.3402 44.7062 39.583 45.171 40.0688C45.6358 40.5547 45.8679 41.2516 45.8679 42.1601V43.459H45.5512C45.7625 42.1916 46.3009 41.1884 47.167 40.4491C48.0542 39.7097 49.1527 39.3191 50.4622 39.2767C51.0748 39.2556 51.5289 39.4141 51.8248 39.7521C52.1415 40.0688 52.3104 40.6708 52.3318 41.5579C52.3318 42.3184 52.1733 42.9206 51.8563 43.364C51.5396 43.8077 50.9377 44.0716 50.0502 44.1562L49.3216 44.2194C48.202 44.3251 47.3887 44.6421 46.8818 45.1701C46.3748 45.6771 46.1214 46.4375 46.1214 47.4514V52.6476C46.1214 53.5772 45.8786 54.2848 45.3927 54.7704C44.9068 55.2563 44.1992 55.4994 43.2699 55.4994ZM61.9913 55.4994C61.252 55.4994 60.6183 55.3198 60.0903 54.9607C59.5833 54.5804 59.1607 54.0207 58.8229 53.2813L54.2918 42.9206C54.0383 42.2869 53.954 41.6954 54.0383 41.1462C54.1229 40.5969 54.3871 40.1638 54.8305 39.8471C55.2953 39.5091 55.929 39.3402 56.7316 39.3402C57.4077 39.3402 57.9461 39.4987 58.3474 39.8154C58.77 40.111 59.1503 40.7025 59.488 41.5897L62.6882 49.8276H61.6111L64.9695 41.5579C65.3076 40.6921 65.6878 40.111 66.1102 39.8154C66.5328 39.4987 67.1136 39.3402 67.853 39.3402C68.4867 39.3402 68.9936 39.5091 69.3738 39.8471C69.7751 40.1638 70.018 40.5969 70.1025 41.1462C70.1871 41.6954 70.0814 42.2869 69.7855 42.9206L65.1598 53.3131C64.8428 54.0524 64.4204 54.6015 63.8924 54.9607C63.3854 55.3198 62.7517 55.4994 61.9913 55.4994ZM75.045 55.4994C74.1579 55.4994 73.4714 55.2352 72.9855 54.7072C72.4999 54.1791 72.2568 53.4187 72.2568 52.4259V42.4136C72.2568 41.4208 72.4999 40.6604 72.9855 40.1323C73.4714 39.604 74.1579 39.3402 75.045 39.3402C75.9533 39.3402 76.6505 39.604 77.1363 40.1323C77.6433 40.6604 77.8968 41.4208 77.8968 42.4136V52.4259C77.8968 53.4187 77.6537 54.1791 77.1681 54.7072C76.6822 55.2352 75.9746 55.4994 75.045 55.4994ZM75.045 37.0906C74.0522 37.0906 73.2814 36.8582 72.732 36.3935C72.204 35.9287 71.9401 35.2528 71.9401 34.3656C71.9401 33.4996 72.204 32.8341 72.732 32.3696C73.2814 31.9048 74.0522 31.6724 75.045 31.6724C76.08 31.6724 76.8618 31.9048 77.3898 32.3696C77.9178 32.8341 78.182 33.4996 78.182 34.3656C78.182 35.2528 77.9178 35.9287 77.3898 36.3935C76.8618 36.8582 76.08 37.0906 75.045 37.0906ZM86.5862 55.5626C85.3823 55.5626 84.3156 55.3409 83.386 54.8971C82.4777 54.4537 81.7595 53.8518 81.2314 53.0913C80.7245 52.3098 80.471 51.4224 80.471 50.4298C80.471 49.2892 80.7669 48.3914 81.3582 47.7366C81.9497 47.0818 82.9001 46.617 84.2099 46.3425C85.5194 46.0466 87.2623 45.8988 89.4379 45.8988H91.1805V48.5603H89.4379C88.614 48.5603 87.9274 48.6238 87.3783 48.7505C86.8503 48.8562 86.4594 49.0357 86.2059 49.2892C85.9525 49.5213 85.8257 49.8276 85.8257 50.2079C85.8257 50.6937 85.9946 51.095 86.3327 51.412C86.6918 51.7287 87.1988 51.8872 87.8535 51.8872C88.3816 51.8872 88.8464 51.7711 89.2477 51.5387C89.6703 51.3063 90.0081 50.9896 90.2616 50.5881C90.515 50.1657 90.6418 49.6798 90.6418 49.1307V45.4553C90.6418 44.6949 90.4411 44.1562 90.0398 43.8392C89.6596 43.5225 88.9942 43.364 88.0438 43.364C87.5368 43.364 86.9664 43.4275 86.3327 43.5543C85.699 43.6599 84.9914 43.8606 84.2099 44.1562C83.6394 44.3675 83.1538 44.399 82.7523 44.2512C82.351 44.1034 82.0343 43.8499 81.8019 43.4908C81.5906 43.1316 81.4849 42.741 81.4849 42.3184C81.506 41.896 81.6434 41.4947 81.8969 41.1145C82.1714 40.7343 82.5834 40.4386 83.1325 40.2273C84.1464 39.8471 85.076 39.5936 85.9207 39.4669C86.7868 39.3402 87.579 39.2767 88.2973 39.2767C90.0292 39.2767 91.455 39.5301 92.5746 40.0371C93.7152 40.523 94.5602 41.2834 95.1093 42.3184C95.6798 43.3323 95.9647 44.6421 95.9647 46.2475V52.6476C95.9647 53.5772 95.743 54.2848 95.2996 54.7704C94.8559 55.2563 94.2118 55.4994 93.3668 55.4994C92.5007 55.4994 91.8352 55.2563 91.3707 54.7704C90.927 54.2848 90.7053 53.5772 90.7053 52.6476V51.824L90.8952 52.2674C90.7896 52.9435 90.5468 53.5244 90.1666 54.01C89.7864 54.4959 89.2901 54.8761 88.6775 55.1506C88.0648 55.4254 87.3677 55.5626 86.5862 55.5626ZM120.097 55.4994C119.21 55.4994 118.523 55.2563 118.037 54.7704C117.551 54.2848 117.308 53.5772 117.308 52.6476V42.1601C117.308 41.2516 117.541 40.5547 118.005 40.0688C118.491 39.583 119.178 39.3402 120.065 39.3402C120.952 39.3402 121.628 39.583 122.093 40.0688C122.558 40.5547 122.79 41.2516 122.79 42.1601V43.6493L122.441 42.3501C122.948 41.3573 123.666 40.5969 124.596 40.0688C125.546 39.5408 126.624 39.2767 127.828 39.2767C129.074 39.2767 130.099 39.5197 130.901 40.0056C131.704 40.4701 132.306 41.2095 132.707 42.2234C133.108 43.2162 133.309 44.4729 133.309 45.994V52.6476C133.309 53.5772 133.066 54.2848 132.58 54.7704C132.095 55.2563 131.397 55.4994 130.489 55.4994C129.581 55.4994 128.884 55.2563 128.398 54.7704C127.912 54.2848 127.669 53.5772 127.669 52.6476V46.2158C127.669 45.2651 127.5 44.5892 127.162 44.188C126.846 43.7867 126.37 43.5857 125.737 43.5857C124.892 43.5857 124.216 43.8606 123.709 44.4097C123.202 44.9377 122.948 45.656 122.948 46.5642V52.6476C122.948 54.5487 121.998 55.4994 120.097 55.4994ZM145.015 55.5626C143.114 55.5626 141.466 55.2352 140.072 54.5804C138.699 53.9046 137.643 52.9539 136.904 51.7287C136.164 50.5038 135.795 49.0568 135.795 47.3881C135.795 45.7827 136.143 44.3779 136.84 43.174C137.558 41.9488 138.53 40.9982 139.755 40.3223C141.001 39.6254 142.417 39.2767 144.001 39.2767C145.163 39.2767 146.219 39.4669 147.169 39.8471C148.12 40.2063 148.933 40.7447 149.609 41.463C150.285 42.1601 150.792 43.0049 151.13 43.9977C151.489 44.9905 151.669 46.0994 151.669 47.3246C151.669 47.747 151.552 48.064 151.32 48.2753C151.088 48.4653 150.718 48.5603 150.211 48.5603H140.516V45.8988H147.55L147.043 46.3107C147.043 45.5292 146.937 44.8955 146.726 44.4097C146.515 43.9238 146.198 43.5543 145.775 43.3008C145.374 43.0473 144.867 42.9206 144.254 42.9206C143.6 42.9206 143.029 43.0788 142.544 43.3958C142.079 43.6914 141.72 44.1351 141.466 44.7264C141.213 45.3179 141.086 46.0573 141.086 46.9444V47.2297C141.086 48.7294 141.413 49.8066 142.068 50.4613C142.744 51.095 143.779 51.412 145.173 51.412C145.638 51.412 146.166 51.3592 146.757 51.2535C147.37 51.1268 147.951 50.9579 148.5 50.7466C149.049 50.5352 149.525 50.5038 149.926 50.6516C150.327 50.7783 150.634 51.0107 150.845 51.3485C151.077 51.6655 151.204 52.035 151.225 52.4576C151.246 52.8589 151.151 53.2602 150.94 53.6615C150.729 54.0417 150.38 54.3376 149.894 54.5487C149.155 54.8867 148.363 55.1402 147.518 55.3091C146.694 55.4783 145.86 55.5626 145.015 55.5626ZM156.887 55.4994C155.999 55.4994 155.313 55.2563 154.827 54.7704C154.341 54.2848 154.098 53.5772 154.098 52.6476V42.1601C154.098 41.2516 154.331 40.5547 154.796 40.0688C155.281 39.583 155.968 39.3402 156.855 39.3402C157.742 39.3402 158.418 39.583 158.883 40.0688C159.347 40.5547 159.58 41.2516 159.58 42.1601V43.6493L159.231 42.3501C159.738 41.3573 160.457 40.5969 161.386 40.0688C162.337 39.5408 163.414 39.2767 164.618 39.2767C165.864 39.2767 166.888 39.5197 167.691 40.0056C168.494 40.4701 169.096 41.2095 169.497 42.2234C169.899 43.2162 170.099 44.4729 170.099 45.994V52.6476C170.099 53.5772 169.856 54.2848 169.37 54.7704C168.885 55.2563 168.188 55.4994 167.279 55.4994C166.371 55.4994 165.674 55.2563 165.188 54.7704C164.702 54.2848 164.459 53.5772 164.459 52.6476V46.2158C164.459 45.2651 164.29 44.5892 163.952 44.188C163.635 43.7867 163.16 43.5857 162.527 43.5857C161.682 43.5857 161.006 43.8606 160.499 44.4097C159.992 44.9377 159.738 45.656 159.738 46.5642V52.6476C159.738 54.5487 158.788 55.4994 156.887 55.4994Z" fill="#413D62"/>
<path d="M111.886 42.5716C106.102 46.8361 105.479 50.6649 104.694 57.6734C99.5422 50.4 97.1168 46.1909 102.777 35.8596C105.363 39.0309 106.876 40.774 111.886 42.5716Z" fill="url(#paint0_linear_191_3087)"/>
<path d="M111.166 39.9346C114.079 39.9346 116.44 37.6808 116.44 34.9006C116.44 32.1204 114.079 29.8666 111.166 29.8666C108.254 29.8666 105.893 32.1204 105.893 34.9006C105.893 37.6808 108.254 39.9346 111.166 39.9346Z" fill="url(#paint1_linear_191_3087)"/>
<path d="M106.132 57.9133C106.012 55.406 106.194 54.0458 106.851 51.6807C110.532 54.0559 112.77 54.6311 117.399 55.2763C113.13 57.8257 110.899 58.9445 106.132 57.9133Z" fill="#4A61F0"/>
<defs>
<linearGradient id="paint0_linear_191_3087" x1="105.704" y1="35.8596" x2="105.704" y2="57.6734" gradientUnits="userSpaceOnUse">
<stop stop-color="#0000C6"/>
<stop offset="1" stop-color="#4A61F0"/>
</linearGradient>
<linearGradient id="paint1_linear_191_3087" x1="105.926" y1="34.9361" x2="117.932" y2="34.9361" gradientUnits="userSpaceOnUse">
<stop stop-color="#0000C6"/>
<stop offset="1" stop-color="#4A61F0"/>
</linearGradient>
</defs>
</svg>
