<svg width="136" height="47" viewBox="0 0 136 47" fill="none" xmlns="http://www.w3.org/2000/svg">
<path d="M4.56289 19.8895C3.7839 19.8895 3.18721 19.6906 2.77284 19.2928C2.37504 18.8784 2.17615 18.2901 2.17615 17.5276V4.72368C2.17615 3.96125 2.37504 3.38112 2.77284 2.98333C3.18721 2.56898 3.7839 2.3618 4.56289 2.3618H9.43585C12.4856 2.3618 14.8392 3.12423 16.4967 4.64909C18.1707 6.17396 19.0077 8.32868 19.0077 11.1132C19.0077 12.5055 18.7922 13.7486 18.3613 14.8425C17.9304 15.9199 17.3088 16.8398 16.4967 17.6022C15.6845 18.348 14.6817 18.9199 13.4884 19.3177C12.3116 19.6989 10.9607 19.8895 9.43585 19.8895H4.56289ZM6.75075 16.1851H9.13751C10.016 16.1851 10.7701 16.0773 11.3999 15.8619C12.0464 15.6464 12.5768 15.3315 12.9911 14.9171C13.4221 14.5027 13.737 13.9806 13.9359 13.3508C14.1513 12.721 14.2591 11.9751 14.2591 11.1132C14.2591 9.38946 13.8364 8.12149 12.9911 7.30933C12.1458 6.48059 10.8613 6.06622 9.13751 6.06622H6.75075V16.1851ZM24.1077 19.8895C23.3287 19.8895 22.732 19.6906 22.3177 19.2928C21.9199 18.8784 21.721 18.2901 21.721 17.5276V4.72368C21.721 3.96125 21.9199 3.38112 22.3177 2.98333C22.732 2.56898 23.3287 2.3618 24.1077 2.3618H32.536C33.1327 2.3618 33.5801 2.51097 33.8785 2.80931C34.1768 3.10765 34.3261 3.53858 34.3261 4.10213C34.3261 4.68225 34.1768 5.12976 33.8785 5.44468C33.5801 5.74303 33.1327 5.8922 32.536 5.8922H26.0967V9.2237H31.989C32.5691 9.2237 33.0084 9.37287 33.3067 9.67122C33.6216 9.96956 33.779 10.4088 33.779 10.9889C33.779 11.569 33.6216 12.0082 33.3067 12.3066C33.0084 12.6049 32.5691 12.7541 31.989 12.7541H26.0967V16.3591H32.536C33.1327 16.3591 33.5801 16.5166 33.8785 16.8315C34.1768 17.1298 34.3261 17.5608 34.3261 18.1243C34.3261 18.7044 34.1768 19.1436 33.8785 19.442C33.5801 19.7403 33.1327 19.8895 32.536 19.8895H24.1077ZM39.1307 20.1133C38.4346 20.1133 37.9043 19.9309 37.5396 19.5663C37.1749 19.2017 36.9927 18.663 36.9927 17.9503V4.40047C36.9927 3.67119 37.1749 3.11594 37.5396 2.73471C37.9043 2.33693 38.385 2.13803 38.9817 2.13803C39.512 2.13803 39.9263 2.23748 40.2247 2.43637C40.523 2.63527 40.8546 2.96677 41.2191 3.43085L49.1004 13.2762H48.4043V4.27617C48.4043 3.58004 48.5782 3.04964 48.9264 2.68499C49.2911 2.32034 49.8214 2.13803 50.5176 2.13803C51.2137 2.13803 51.7358 2.32034 52.0838 2.68499C52.4485 3.04964 52.6309 3.58004 52.6309 4.27617V18.0497C52.6309 18.6796 52.4651 19.1851 52.1336 19.5663C51.8022 19.9309 51.3546 20.1133 50.791 20.1133C50.2276 20.1133 49.78 20.0138 49.4486 19.8149C49.1337 19.5994 48.7939 19.2679 48.4292 18.8204L40.5479 8.95021H41.2441V17.9503C41.2441 18.663 41.0617 19.2017 40.697 19.5663C40.349 19.9309 39.8269 20.1133 39.1307 20.1133ZM4.46345 43.3526C3.73417 43.3526 3.17063 43.1537 2.77284 42.7559C2.37504 42.3416 2.17615 41.7696 2.17615 41.0404V27.9131C2.17615 27.1674 2.37504 26.5956 2.77284 26.1978C3.18721 25.8 3.75902 25.6011 4.48832 25.6011H10.6044C12.5933 25.6011 14.1265 26.1149 15.2038 27.1425C16.2978 28.1535 16.8447 29.5541 16.8447 31.3442C16.8447 33.1342 16.2978 34.543 15.2038 35.5708C14.1265 36.5818 12.5933 37.0874 10.6044 37.0874H6.75075V41.0404C6.75075 41.7696 6.56015 42.3416 6.17892 42.7559C5.79771 43.1537 5.22588 43.3526 4.46345 43.3526ZM6.75075 33.5818H9.80879C10.6707 33.5818 11.3336 33.3995 11.7977 33.0348C12.2618 32.6535 12.4939 32.0901 12.4939 31.3442C12.4939 30.5817 12.2618 30.0183 11.7977 29.6535C11.3336 29.2888 10.6707 29.1067 9.80879 29.1067H6.75075V33.5818ZM22.3964 43.4022C21.4516 43.4022 20.6146 43.2282 19.8853 42.88C19.1726 42.5321 18.609 42.0598 18.1946 41.4631C17.7969 40.8498 17.598 40.1535 17.598 39.3747C17.598 38.4797 17.83 37.7751 18.2941 37.2614C18.7582 36.7476 19.5041 36.3829 20.5317 36.1674C21.5594 35.9353 22.9267 35.8193 24.6338 35.8193H26.0014V37.9077H24.6338C23.9875 37.9077 23.4489 37.9575 23.018 38.0569C22.6034 38.1399 22.2969 38.2808 22.098 38.4797C21.8991 38.6618 21.7997 38.9021 21.7997 39.2005C21.7997 39.5817 21.9322 39.8966 22.1975 40.1453C22.4793 40.3939 22.8771 40.5182 23.3909 40.5182C23.8052 40.5182 24.1699 40.4271 24.4848 40.2448C24.8162 40.0624 25.0815 39.8139 25.2804 39.4988C25.4793 39.1674 25.5787 38.7862 25.5787 38.3553V35.4713C25.5787 34.8746 25.4213 34.4519 25.1064 34.2032C24.808 33.9547 24.2859 33.8303 23.5399 33.8303C23.1421 33.8303 22.6947 33.8802 22.1975 33.9796C21.7003 34.0625 21.1449 34.22 20.5317 34.4519C20.0842 34.6177 19.703 34.6425 19.388 34.5265C19.0731 34.4105 18.8245 34.2116 18.6422 33.9298C18.4764 33.648 18.3935 33.3415 18.3935 33.0098C18.4101 32.6784 18.5179 32.3635 18.7168 32.0652C18.9322 31.7669 19.2554 31.5349 19.6864 31.3691C20.482 31.0707 21.2112 30.8718 21.8742 30.7724C22.5538 30.6729 23.1754 30.6231 23.7388 30.6231C25.098 30.6231 26.2168 30.822 27.0953 31.2198C27.9903 31.601 28.6532 32.1977 29.0843 33.0098C29.5317 33.8054 29.7555 34.8332 29.7555 36.0929V41.1149C29.7555 41.8443 29.5815 42.3996 29.2333 42.7806C28.8854 43.1618 28.3798 43.3526 27.7167 43.3526C27.0373 43.3526 26.5152 43.1618 26.1505 42.7806C25.8025 42.3996 25.6283 41.8443 25.6283 41.1149V40.4686L25.7776 40.8166C25.6947 41.3471 25.5042 41.8029 25.2058 42.1839C24.9075 42.5652 24.5179 42.8635 24.0372 43.0789C23.5565 43.2946 23.0096 43.4022 22.3964 43.4022ZM34.538 43.3526C33.8085 43.3526 33.2451 43.1618 32.8474 42.7806C32.4661 42.3996 32.2754 41.8443 32.2754 41.1149V32.8857C32.2754 32.1728 32.4577 31.626 32.8224 31.2447C33.2037 30.8635 33.7424 30.6729 34.4385 30.6729C35.1346 30.6729 35.665 30.8635 36.0297 31.2447C36.3944 31.626 36.5765 32.1728 36.5765 32.8857V33.9049H36.328C36.4938 32.9104 36.9163 32.1232 37.5959 31.543C38.292 30.9629 39.154 30.6564 40.1815 30.6231C40.6622 30.6066 41.0186 30.7309 41.2508 30.9962C41.4993 31.2447 41.6318 31.717 41.6485 32.4132C41.6485 33.0098 41.5242 33.4824 41.2755 33.8303C41.0269 34.1785 40.5546 34.3856 39.8583 34.4519L39.2865 34.5015C38.408 34.5845 37.7699 34.8332 37.3721 35.2475C36.9743 35.6453 36.7754 36.242 36.7754 37.0376V41.1149C36.7754 41.8443 36.5849 42.3996 36.2036 42.7806C35.8224 43.1618 35.2672 43.3526 34.538 43.3526ZM49.2281 43.3526C48.648 43.3526 48.1507 43.2117 47.7364 42.9299C47.3386 42.6315 47.007 42.1923 46.7419 41.6121L43.1865 33.4824C42.9876 32.9851 42.9215 32.521 42.9876 32.0901C43.054 31.659 43.2613 31.3192 43.6092 31.0707C43.9739 30.8055 44.4712 30.6729 45.1009 30.6729C45.6315 30.6729 46.054 30.7973 46.3688 31.0458C46.7005 31.2778 46.9988 31.7419 47.2639 32.4381L49.775 38.9021H48.9298L51.565 32.4132C51.8303 31.7338 52.1286 31.2778 52.46 31.0458C52.7917 30.7973 53.2474 30.6729 53.8276 30.6729C54.3248 30.6729 54.7226 30.8055 55.021 31.0707C55.3358 31.3192 55.5264 31.659 55.5927 32.0901C55.6591 32.521 55.5762 32.9851 55.344 33.4824L51.7143 41.6371C51.4656 42.2172 51.1341 42.6481 50.7198 42.9299C50.322 43.2117 49.8248 43.3526 49.2281 43.3526ZM59.471 43.3526C58.7748 43.3526 58.2361 43.1453 57.8549 42.731C57.4739 42.3166 57.2831 41.72 57.2831 40.9409V33.0846C57.2831 32.3055 57.4739 31.7089 57.8549 31.2945C58.2361 30.88 58.7748 30.6729 59.471 30.6729C60.1836 30.6729 60.7307 30.88 61.112 31.2945C61.5097 31.7089 61.7086 32.3055 61.7086 33.0846V40.9409C61.7086 41.72 61.5179 42.3166 61.1369 42.731C60.7556 43.1453 60.2004 43.3526 59.471 43.3526ZM59.471 28.9078C58.6919 28.9078 58.0871 28.7254 57.656 28.3607C57.2417 27.996 57.0346 27.4657 57.0346 26.7696C57.0346 26.09 57.2417 25.5678 57.656 25.2033C58.0871 24.8386 58.6919 24.6563 59.471 24.6563C60.2831 24.6563 60.8965 24.8386 61.3108 25.2033C61.7252 25.5678 61.9324 26.09 61.9324 26.7696C61.9324 27.4657 61.7252 27.996 61.3108 28.3607C60.8965 28.7254 60.2831 28.9078 59.471 28.9078ZM68.5269 43.4022C67.5823 43.4022 66.7453 43.2282 66.0159 42.88C65.3032 42.5321 64.7396 42.0598 64.3252 41.4631C63.9275 40.8498 63.7286 40.1535 63.7286 39.3747C63.7286 38.4797 63.9608 37.7751 64.4247 37.2614C64.8889 36.7476 65.6346 36.3829 66.6624 36.1674C67.6899 35.9353 69.0575 35.8193 70.7646 35.8193H72.132V37.9077H70.7646C70.1181 37.9077 69.5794 37.9575 69.1485 38.0569C68.7342 38.1399 68.4275 38.2808 68.2286 38.4797C68.0297 38.6618 67.9303 38.9021 67.9303 39.2005C67.9303 39.5817 68.0628 39.8966 68.328 40.1453C68.6099 40.3939 69.0076 40.5182 69.5214 40.5182C69.9358 40.5182 70.3005 40.4271 70.6153 40.2448C70.947 40.0624 71.212 39.8139 71.4109 39.4988C71.6098 39.1674 71.7093 38.7862 71.7093 38.3553V35.4713C71.7093 34.8746 71.5518 34.4519 71.2369 34.2032C70.9386 33.9547 70.4164 33.8303 69.6707 33.8303C69.2729 33.8303 68.8253 33.8802 68.328 33.9796C67.8308 34.0625 67.2756 34.22 66.6624 34.4519C66.2147 34.6177 65.8337 34.6425 65.5186 34.5265C65.2037 34.4105 64.9552 34.2116 64.7729 33.9298C64.6071 33.648 64.5241 33.3415 64.5241 33.0098C64.5407 32.6784 64.6485 32.3635 64.8474 32.0652C65.0628 31.7669 65.3861 31.5349 65.817 31.3691C66.6125 31.0707 67.3419 30.8718 68.0048 30.7724C68.6844 30.6729 69.306 30.6231 69.8696 30.6231C71.2286 30.6231 72.3474 30.822 73.2259 31.2198C74.1209 31.601 74.784 32.1977 75.2148 33.0098C75.6624 33.8054 75.886 34.8332 75.886 36.0929V41.1149C75.886 41.8443 75.7121 42.3996 75.3641 42.7806C75.0159 43.1618 74.5105 43.3526 73.8475 43.3526C73.1679 43.3526 72.6457 43.1618 72.2812 42.7806C71.9331 42.3996 71.7591 41.8443 71.7591 41.1149V40.4686L71.9082 40.8166C71.8252 41.3471 71.6347 41.8029 71.3364 42.1839C71.038 42.5652 70.6486 42.8635 70.1679 43.0789C69.6872 43.2946 69.1402 43.4022 68.5269 43.4022ZM94.8216 43.3526C94.1255 43.3526 93.5868 43.1618 93.2056 42.7806C92.8243 42.3996 92.6338 41.8443 92.6338 41.1149V32.8857C92.6338 32.1728 92.8162 31.626 93.1807 31.2447C93.5619 30.8635 94.1006 30.6729 94.7967 30.6729C95.4929 30.6729 96.0234 30.8635 96.3879 31.2447C96.7526 31.626 96.935 32.1728 96.935 32.8857V34.0541L96.6615 33.0348C97.0593 32.2557 97.6227 31.659 98.3521 31.2447C99.0979 30.8304 99.9433 30.6231 100.888 30.6231C101.866 30.6231 102.67 30.8138 103.3 31.1951C103.929 31.5596 104.402 32.1397 104.717 32.9353C105.032 33.7143 105.189 34.7004 105.189 35.894V41.1149C105.189 41.8443 104.999 42.3996 104.617 42.7806C104.236 43.1618 103.689 43.3526 102.976 43.3526C102.264 43.3526 101.717 43.1618 101.336 42.7806C100.954 42.3996 100.764 41.8443 100.764 41.1149V36.068C100.764 35.322 100.631 34.7917 100.366 34.4768C100.117 34.162 99.7444 34.0043 99.2472 34.0043C98.5841 34.0043 98.0538 34.22 97.656 34.6508C97.2582 35.0652 97.0593 35.6288 97.0593 36.3414V41.1149C97.0593 42.6066 96.3134 43.3526 94.8216 43.3526ZM114.374 43.4022C112.883 43.4022 111.59 43.1453 110.496 42.6315C109.418 42.1012 108.59 41.3552 108.01 40.3939C107.429 39.4327 107.14 38.2973 107.14 36.9879C107.14 35.7282 107.413 34.6259 107.96 33.6813C108.523 32.7199 109.286 31.9739 110.247 31.4436C111.225 30.8967 112.336 30.6231 113.579 30.6231C114.49 30.6231 115.319 30.7724 116.065 31.0707C116.811 31.3525 117.449 31.775 117.979 32.3386C118.51 32.8857 118.907 33.5485 119.173 34.3276C119.454 35.1066 119.595 35.9767 119.595 36.9381C119.595 37.2695 119.504 37.5183 119.322 37.6841C119.14 37.8331 118.849 37.9077 118.452 37.9077H110.844V35.8193H116.363L115.965 36.1425C115.965 35.5293 115.882 35.0321 115.717 34.6508C115.551 34.2696 115.302 33.9796 114.971 33.7807C114.656 33.5818 114.258 33.4824 113.778 33.4824C113.264 33.4824 112.816 33.6065 112.435 33.8552C112.07 34.0872 111.789 34.4354 111.59 34.8993C111.391 35.3635 111.291 35.9436 111.291 36.6398V36.8636C111.291 38.0404 111.548 38.8856 112.062 39.3994C112.593 39.8966 113.405 40.1453 114.499 40.1453C114.863 40.1453 115.278 40.1039 115.742 40.021C116.222 39.9215 116.678 39.789 117.109 39.6232C117.54 39.4574 117.913 39.4327 118.228 39.5487C118.543 39.6481 118.783 39.8305 118.949 40.0955C119.131 40.3442 119.231 40.6342 119.247 40.9658C119.264 41.2807 119.189 41.5956 119.023 41.9105C118.858 42.2088 118.584 42.441 118.203 42.6066C117.623 42.8719 117.001 43.0708 116.338 43.2033C115.692 43.336 115.037 43.4022 114.374 43.4022ZM123.69 43.3526C122.993 43.3526 122.455 43.1618 122.074 42.7806C121.693 42.3996 121.502 41.8443 121.502 41.1149V32.8857C121.502 32.1728 121.684 31.626 122.049 31.2447C122.43 30.8635 122.969 30.6729 123.665 30.6729C124.361 30.6729 124.891 30.8635 125.256 31.2447C125.621 31.626 125.803 32.1728 125.803 32.8857V34.0541L125.529 33.0348C125.927 32.2557 126.491 31.659 127.22 31.2447C127.966 30.8304 128.811 30.6231 129.756 30.6231C130.734 30.6231 131.538 30.8138 132.168 31.1951C132.798 31.5596 133.27 32.1397 133.585 32.9353C133.9 33.7143 134.057 34.7004 134.057 35.894V41.1149C134.057 41.8443 133.867 42.3996 133.485 42.7806C133.104 43.1618 132.557 43.3526 131.845 43.3526C131.132 43.3526 130.585 43.1618 130.204 42.7806C129.822 42.3996 129.632 41.8443 129.632 41.1149V36.068C129.632 35.322 129.499 34.7917 129.234 34.4768C128.985 34.162 128.612 34.0043 128.115 34.0043C127.452 34.0043 126.922 34.22 126.524 34.6508C126.126 35.0652 125.927 35.6288 125.927 36.3414V41.1149C125.927 42.6066 125.182 43.3526 123.69 43.3526Z" fill="#413D62"/>
<path d="M88.3783 33.2085C83.8403 36.5547 83.3512 39.5591 82.7353 45.0584C78.6927 39.3512 76.7896 36.0485 81.2306 27.9418C83.2604 30.4303 84.447 31.798 88.3783 33.2085Z" fill="url(#paint0_linear_183_2636)"/>
<path d="M87.8144 31.1394C90.0998 31.1394 91.9525 29.3709 91.9525 27.1893C91.9525 25.0078 90.0998 23.2393 87.8144 23.2393C85.529 23.2393 83.6763 25.0078 83.6763 27.1893C83.6763 29.3709 85.529 31.1394 87.8144 31.1394Z" fill="url(#paint1_linear_183_2636)"/>
<path d="M83.864 45.2466C83.77 43.2793 83.9128 42.2119 84.4283 40.3561C87.3169 42.2199 89.0728 42.6713 92.7046 43.1775C89.3548 45.178 87.6047 46.0558 83.864 45.2466Z" fill="#4A61F0"/>
<defs>
<linearGradient id="paint0_linear_183_2636" x1="83.5277" y1="27.9418" x2="83.5277" y2="45.0584" gradientUnits="userSpaceOnUse">
<stop stop-color="#0000C6"/>
<stop offset="1" stop-color="#4A61F0"/>
</linearGradient>
<linearGradient id="paint1_linear_183_2636" x1="83.7023" y1="27.2172" x2="93.1236" y2="27.2172" gradientUnits="userSpaceOnUse">
<stop stop-color="#0000C6"/>
<stop offset="1" stop-color="#4A61F0"/>
</linearGradient>
</defs>
</svg>
