<?xml version="1.0" standalone="no"?>
<!DOCTYPE svg PUBLIC "-//W3C//DTD SVG 20010904//EN"
 "http://www.w3.org/TR/2001/REC-SVG-20010904/DTD/svg10.dtd">
<svg version="1.0" xmlns="http://www.w3.org/2000/svg"
 width="700.000000pt" height="700.000000pt" viewBox="0 0 700.000000 700.000000"
 preserveAspectRatio="xMidYMid meet">
<metadata>
Created by potrace 1.14, written by Peter Selinger 2001-2017
</metadata>
<g transform="translate(0.000000,700.000000) scale(0.100000,-0.100000)"
fill="#000000" stroke="none">
<path d="M3950 6585 c-378 -63 -704 -305 -860 -638 -156 -335 -124 -730 84
-1042 56 -83 217 -242 303 -299 142 -93 321 -165 453 -183 19 -3 53 -8 75 -12
48 -8 208 -6 285 3 90 11 216 44 298 78 70 29 93 40 163 80 56 32 169 121 226
180 160 162 266 368 300 583 15 96 7 364 -12 395 -2 4 -7 22 -10 41 -3 19 -22
73 -41 120 -54 135 -124 244 -226 350 -167 175 -374 286 -628 340 -79 16 -321
19 -410 4z"/>
<path d="M2303 5278 c-15 -18 -219 -420 -282 -558 -132 -283 -237 -572 -306
-834 -20 -77 -39 -151 -42 -165 -2 -14 -9 -46 -14 -71 -6 -25 -13 -61 -15 -80
-2 -19 -6 -44 -8 -55 -6 -24 -14 -83 -25 -185 -9 -80 -6 -481 4 -540 3 -19 13
-78 21 -130 72 -445 291 -934 690 -1540 130 -197 396 -581 400 -577 1 1 5 25
8 52 4 28 8 64 10 80 2 17 7 55 10 85 16 133 61 483 71 545 3 17 7 48 11 70
45 299 151 739 213 890 5 11 23 58 41 105 140 359 357 686 649 979 139 139
188 184 282 262 35 29 66 56 69 59 3 3 49 39 102 79 54 40 95 77 93 82 -3 4
-22 13 -43 19 -70 23 -287 111 -410 167 -566 257 -891 516 -1364 1085 -60 72
-119 144 -132 160 -18 23 -25 27 -33 16z"/>
<path d="M3195 1828 c-10 -29 -65 -245 -70 -277 -3 -19 -7 -37 -9 -40 -2 -3
-7 -24 -10 -46 -4 -22 -11 -56 -16 -75 -5 -19 -11 -54 -15 -76 -14 -103 -17
-121 -20 -154 -11 -101 -19 -272 -18 -405 1 -222 4 -275 17 -276 6 0 18 -2 26
-4 8 -1 42 -8 75 -14 33 -6 71 -13 85 -16 30 -6 64 -11 145 -20 33 -4 69 -9
80 -12 11 -2 110 -6 220 -8 181 -3 334 7 440 30 17 3 44 9 60 12 17 2 84 20
150 39 251 72 498 187 895 415 249 142 275 159 255 160 -11 0 -29 2 -40 4 -23
4 -290 45 -320 49 -11 2 -33 6 -50 9 -16 4 -46 9 -65 12 -19 3 -46 7 -60 10
-14 3 -38 7 -55 10 -16 3 -39 7 -50 9 -141 29 -198 42 -328 75 -134 34 -335
96 -392 121 -11 5 -76 32 -145 60 -194 80 -485 234 -690 365 -36 23 -71 45
-78 49 -7 4 -14 2 -17 -6z"/>
</g>
</svg>
