<svg width="52" height="15" viewBox="0 0 52 15" fill="none" xmlns="http://www.w3.org/2000/svg">
<path d="M51.0201 7.85355C51.2153 7.65829 51.2153 7.34171 51.0201 7.14645L47.8381 3.96447C47.6428 3.7692 47.3262 3.7692 47.131 3.96447C46.9357 4.15973 46.9357 4.47631 47.131 4.67157L49.9594 7.5L47.131 10.3284C46.9357 10.5237 46.9357 10.8403 47.131 11.0355C47.3262 11.2308 47.6428 11.2308 47.8381 11.0355L51.0201 7.85355ZM0.666504 8H1.62804V7H0.666504V8ZM3.55112 8H5.4742V7H3.55112V8ZM7.39727 8H9.32035V7H7.39727V8ZM11.2434 8H13.1665V7H11.2434V8ZM15.0896 8H17.0127V7H15.0896V8ZM18.9357 8H20.8588V7H18.9357V8ZM22.7819 8H24.705V7H22.7819V8ZM26.628 8H28.5511V7H26.628V8ZM30.4742 8H32.3973V7H30.4742V8ZM34.3203 8H36.2434V7H34.3203V8ZM38.1665 8H40.0896V7H38.1665V8ZM42.0127 8H43.9357V7H42.0127V8ZM45.8588 8H47.7819V7H45.8588V8ZM49.705 8H50.6665V7H49.705V8ZM51.3736 8.20711C51.7641 7.81658 51.7641 7.18342 51.3736 6.79289L45.0097 0.428932C44.6191 0.0384078 43.986 0.0384078 43.5954 0.428932C43.2049 0.819457 43.2049 1.45262 43.5954 1.84315L49.2523 7.5L43.5954 13.1569C43.2049 13.5474 43.2049 14.1805 43.5954 14.5711C43.986 14.9616 44.6191 14.9616 45.0097 14.5711L51.3736 8.20711ZM0.666504 8.5H1.62804V6.5H0.666504V8.5ZM3.55112 8.5H5.4742V6.5H3.55112V8.5ZM7.39727 8.5H9.32035V6.5H7.39727V8.5ZM11.2434 8.5H13.1665V6.5H11.2434V8.5ZM15.0896 8.5H17.0127V6.5H15.0896V8.5ZM18.9357 8.5H20.8588V6.5H18.9357V8.5ZM22.7819 8.5H24.705V6.5H22.7819V8.5ZM26.628 8.5H28.5511V6.5H26.628V8.5ZM30.4742 8.5H32.3973V6.5H30.4742V8.5ZM34.3203 8.5H36.2434V6.5H34.3203V8.5ZM38.1665 8.5H40.0896V6.5H38.1665V8.5ZM42.0127 8.5H43.9357V6.5H42.0127V8.5ZM45.8588 8.5H47.7819V6.5H45.8588V8.5ZM49.705 8.5H50.6665V6.5H49.705V8.5Z" fill="#D3D9FF"/>
</svg>
